# 3ds Max Wavefront OBJ Exporter v0.99 - (c)2007 guruware
# File Created: 17.11.2022 00:08:35

mtllib Grass patch.mtl

#
# object Box003
#

v  -4.5717 1.6584 -7.9598
v  -3.7760 1.6584 -8.3767
v  -3.5263 1.6584 -7.9001
v  -4.3220 1.6584 -7.4832
v  -6.2466 6.5573 -11.6779
v  -6.2408 6.6100 -11.6668
v  -5.8737 6.6100 -11.8591
v  -5.8795 6.5573 -11.8702
v  -4.6643 3.4521 -8.1366
v  -4.9141 3.4521 -8.6132
v  -3.8686 3.4521 -8.5535
v  -4.1183 3.4521 -9.0301
v  -5.3410 5.2908 -9.6366
v  -5.5009 5.2908 -9.9418
v  -4.7167 5.2908 -9.9637
v  -4.8766 5.2908 -10.2689
# 16 vertices

vn -0.7386 -0.6642 -0.1154
vn 0.3256 -0.6642 -0.6730
vn 0.8152 -0.4613 0.3502
vn -0.1761 -0.4613 0.8696
vn -0.8645 -0.2872 -0.4125
vn -0.6384 0.7687 -0.0400
vn 0.3305 0.7687 -0.5476
vn 0.1529 -0.2872 -0.9456
vn -0.3068 0.3991 0.8641
vn -0.9347 -0.3132 -0.1682
vn 0.8851 0.3991 0.2396
vn 0.3938 -0.3132 -0.8642
vn -0.3707 0.5946 0.7134
vn -0.9014 -0.4286 -0.0613
vn 0.7976 0.5946 0.1013
vn 0.4627 -0.4286 -0.7760
# 16 vertex normals

vt 1.0000 0.0000 0.0000
vt 1.0000 1.0000 0.0000
vt 0.0000 1.0000 0.0000
vt 0.0000 0.0000 0.0000
# 4 texture coords

o Box003
g Box003
usemtl wire_061135006
s 2
f 1/1/1 2/2/2 3/3/3 4/4/4 
s 4
f 5/4/5 6/1/6 7/2/7 8/3/8 
s 8
f 1/4/1 4/1/4 9/2/9 10/3/10 
s 16
f 4/4/4 3/1/3 11/2/11 9/3/9 
s 32
f 3/4/3 2/1/2 12/2/12 11/3/11 
s 64
f 2/4/2 1/1/1 10/2/10 12/3/12 
s off
f 10/4/10 9/1/9 13/1/13 14/4/14 
f 9/1/9 11/2/11 15/2/15 13/1/13 
f 11/2/11 12/3/12 16/3/16 15/2/15 
f 12/3/12 10/4/10 14/4/14 16/3/16 
f 14/4/14 13/1/13 6/1/6 5/4/5 
f 13/1/13 15/2/15 7/2/7 6/1/6 
f 15/2/15 16/3/16 8/3/8 7/2/7 
f 16/3/16 14/4/14 5/4/5 8/3/8 
# 14 polygons

#
# object Box004
#

v  3.4183 1.6584 2.3881
v  4.3083 1.6584 2.5101
v  4.2351 1.6584 3.0432
v  3.3451 1.6584 2.9212
v  4.2111 6.5573 -1.6120
v  4.2094 6.6100 -1.5996
v  4.6200 6.6100 -1.5432
v  4.6217 6.5573 -1.5557
v  3.4454 3.4521 2.1904
v  3.5185 3.4521 1.6573
v  4.3354 3.4521 2.3125
v  4.4085 3.4521 1.7793
v  3.7645 5.2908 0.5760
v  3.8113 5.2908 0.2346
v  4.4627 5.2908 0.6718
v  4.5096 5.2908 0.3304
# 16 vertices

vn -0.5346 -0.6642 -0.5225
vn 0.6556 -0.6642 -0.3593
vn 0.4608 -0.4613 0.7582
vn -0.6479 -0.4613 0.6061
vn -0.4648 -0.2872 -0.8375
vn -0.4968 0.7687 -0.4029
vn 0.5869 0.7687 -0.2543
vn 0.6732 -0.2872 -0.6814
vn -0.7512 0.3991 0.5258
vn -0.6637 -0.3132 -0.6792
vn 0.5819 0.3991 0.7087
vn 0.8221 -0.3132 -0.4754
vn -0.7159 0.5946 0.3660
vn -0.6987 -0.4286 -0.5728
vn 0.5909 0.5946 0.5453
vn 0.8271 -0.4286 -0.3636
# 16 vertex normals

vt 1.0000 0.0000 0.0000
vt 1.0000 1.0000 0.0000
vt 0.0000 1.0000 0.0000
vt 0.0000 0.0000 0.0000
# 4 texture coords

o Box004
g Box004
usemtl wire_061135006
s 2
f 17/5/17 18/6/18 19/7/19 20/8/20 
s 4
f 21/8/21 22/5/22 23/6/23 24/7/24 
s 8
f 17/8/17 20/5/20 25/6/25 26/7/26 
s 16
f 20/8/20 19/5/19 27/6/27 25/7/25 
s 32
f 19/8/19 18/5/18 28/6/28 27/7/27 
s 64
f 18/8/18 17/5/17 26/6/26 28/7/28 
s off
f 26/8/26 25/5/25 29/5/29 30/8/30 
f 25/5/25 27/6/27 31/6/31 29/5/29 
f 27/6/27 28/7/28 32/7/32 31/6/31 
f 28/7/28 26/8/26 30/8/30 32/7/32 
f 30/8/30 29/5/29 22/5/22 21/8/21 
f 29/5/29 31/6/31 23/6/23 22/5/22 
f 31/6/31 32/7/32 24/7/24 23/6/23 
f 32/7/32 30/8/30 21/8/21 24/7/24 
# 14 polygons

#
# object Box005
#

v  -3.9974 1.6584 0.5108
v  -3.3238 1.6584 1.1050
v  -3.6797 1.6584 1.5086
v  -4.3534 1.6584 0.9143
v  -1.1231 6.5573 -2.3819
v  -1.1314 6.6100 -2.3724
v  -0.8206 6.6100 -2.0983
v  -0.8123 6.5573 -2.1077
v  -3.8655 3.4521 0.3612
v  -3.5095 3.4521 -0.0424
v  -3.1918 3.4521 0.9554
v  -2.8358 3.4521 0.5519
v  -2.7061 5.2908 -0.8068
v  -2.4782 5.2908 -1.0652
v  -2.1776 5.2908 -0.3405
v  -1.9497 5.2908 -0.5989
# 16 vertices

vn -0.1561 -0.6642 -0.7311
vn 0.7449 -0.6642 0.0636
vn -0.0359 -0.4613 0.8865
vn -0.8751 -0.4613 0.1462
vn 0.0764 -0.2872 -0.9548
vn -0.1907 0.7687 -0.6105
vn 0.6296 0.7687 0.1130
vn 0.9378 -0.2872 -0.1950
vn -0.9167 0.3991 0.0222
vn -0.1768 -0.3132 -0.9331
vn 0.0924 0.3991 0.9123
vn 0.9478 -0.3132 0.0591
vn -0.7988 0.5946 -0.0914
vn -0.2648 -0.4286 -0.8638
vn 0.1903 0.5946 0.7812
vn 0.8901 -0.4286 0.1550
# 16 vertex normals

vt 1.0000 0.0000 0.0000
vt 1.0000 1.0000 0.0000
vt 0.0000 1.0000 0.0000
vt 0.0000 0.0000 0.0000
# 4 texture coords

o Box005
g Box005
usemtl wire_061135006
s 2
f 33/9/33 34/10/34 35/11/35 36/12/36 
s 4
f 37/12/37 38/9/38 39/10/39 40/11/40 
s 8
f 33/12/33 36/9/36 41/10/41 42/11/42 
s 16
f 36/12/36 35/9/35 43/10/43 41/11/41 
s 32
f 35/12/35 34/9/34 44/10/44 43/11/43 
s 64
f 34/12/34 33/9/33 42/10/42 44/11/44 
s off
f 42/12/42 41/9/41 45/9/45 46/12/46 
f 41/9/41 43/10/43 47/10/47 45/9/45 
f 43/10/43 44/11/44 48/11/48 47/10/47 
f 44/11/44 42/12/42 46/12/46 48/11/48 
f 46/12/46 45/9/45 38/9/38 37/12/37 
f 45/9/45 47/10/47 39/10/39 38/9/38 
f 47/10/47 48/11/48 40/11/40 39/10/39 
f 48/11/48 46/12/46 37/12/37 40/11/40 
# 14 polygons

#
# object Box007
#

v  -4.5026 1.6584 -1.1576
v  -4.6713 1.6584 -0.2753
v  -5.1998 1.6584 -0.3763
v  -5.0311 1.6584 -1.2587
v  -0.5498 6.5573 -0.1554
v  -0.5621 6.6100 -0.1578
v  -0.6400 6.6100 0.2493
v  -0.6276 6.5573 0.2517
v  -4.3066 3.4521 -1.1201
v  -3.7781 3.4521 -1.0191
v  -4.4753 3.4521 -0.2378
v  -3.9468 3.4521 -0.1367
v  -2.7112 5.2908 -0.7165
v  -2.3728 5.2908 -0.6518
v  -2.8436 5.2908 -0.0243
v  -2.5052 5.2908 0.0404
# 16 vertices

vn 0.5499 -0.6642 -0.5064
vn 0.3243 -0.6642 0.6736
vn -0.7814 -0.4613 0.4203
vn -0.5712 -0.4613 -0.6789
vn 0.8608 -0.2872 -0.4201
vn 0.4285 0.7687 -0.4749
vn 0.2231 0.7687 0.5995
vn 0.6451 -0.2872 0.7081
vn -0.4856 0.3991 -0.7778
vn 0.7132 -0.3132 -0.6271
vn -0.7383 0.3991 0.5438
vn 0.4315 -0.3132 0.8460
vn -0.3279 0.5946 -0.7341
vn 0.6088 -0.4286 -0.6676
vn -0.5756 0.5946 0.5614
vn 0.3195 -0.4286 0.8451
# 16 vertex normals

vt 1.0000 0.0000 0.0000
vt 1.0000 1.0000 0.0000
vt 0.0000 1.0000 0.0000
vt 0.0000 0.0000 0.0000
# 4 texture coords

o Box007
g Box007
usemtl wire_061135006
s 2
f 49/13/49 50/14/50 51/15/51 52/16/52 
s 4
f 53/16/53 54/13/54 55/14/55 56/15/56 
s 8
f 49/16/49 52/13/52 57/14/57 58/15/58 
s 16
f 52/16/52 51/13/51 59/14/59 57/15/57 
s 32
f 51/16/51 50/13/50 60/14/60 59/15/59 
s 64
f 50/16/50 49/13/49 58/14/58 60/15/60 
s off
f 58/16/58 57/13/57 61/13/61 62/16/62 
f 57/13/57 59/14/59 63/14/63 61/13/61 
f 59/14/59 60/15/60 64/15/64 63/14/63 
f 60/15/60 58/16/58 62/16/62 64/15/64 
f 62/16/62 61/13/61 54/13/54 53/16/53 
f 61/13/61 63/14/63 55/14/55 54/13/54 
f 63/14/63 64/15/64 56/15/56 55/14/55 
f 64/15/64 62/16/62 53/16/53 56/15/56 
# 14 polygons

#
# object Box009
#

v  -2.4037 1.6584 -7.4451
v  -3.2352 1.6584 -7.1051
v  -3.4389 1.6584 -7.6032
v  -2.6074 1.6584 -7.9432
v  -1.0869 6.5573 -3.5857
v  -1.0916 6.6100 -3.5973
v  -1.4752 6.6100 -3.4405
v  -1.4705 6.5573 -3.4288
v  -2.3282 3.4521 -7.2604
v  -2.1245 3.4521 -6.7624
v  -3.1597 3.4521 -6.9204
v  -2.9560 3.4521 -6.4224
v  -1.7960 5.2908 -5.7033
v  -1.6655 5.2908 -5.3843
v  -2.4483 5.2908 -5.4365
v  -2.3179 5.2908 -5.1176
# 16 vertices

vn 0.7244 -0.6642 0.1845
vn -0.3876 -0.6642 0.6393
vn -0.7785 -0.4613 -0.4255
vn 0.2573 -0.4613 -0.8491
vn 0.8217 -0.2872 0.4922
vn 0.6318 0.7687 0.1000
vn -0.3807 0.7687 0.5140
vn -0.2414 -0.2872 0.9269
vn 0.3869 0.3991 -0.8313
vn 0.9146 -0.3132 0.2556
vn -0.8585 0.3991 -0.3220
vn -0.4735 -0.3132 0.8232
vn 0.4363 0.5946 -0.6753
vn 0.8916 -0.4286 0.1460
vn -0.7845 0.5946 -0.1761
vn -0.5339 -0.4286 0.7289
# 16 vertex normals

vt 1.0000 0.0000 0.0000
vt 1.0000 1.0000 0.0000
vt 0.0000 1.0000 0.0000
vt 0.0000 0.0000 0.0000
# 4 texture coords

o Box009
g Box009
usemtl wire_061135006
s 2
f 65/17/65 66/18/66 67/19/67 68/20/68 
s 4
f 69/20/69 70/17/70 71/18/71 72/19/72 
s 8
f 65/20/65 68/17/68 73/18/73 74/19/74 
s 16
f 68/20/68 67/17/67 75/18/75 73/19/73 
s 32
f 67/20/67 66/17/66 76/18/76 75/19/75 
s 64
f 66/20/66 65/17/65 74/18/74 76/19/76 
s off
f 74/20/74 73/17/73 77/17/77 78/20/78 
f 73/17/73 75/18/75 79/18/79 77/17/77 
f 75/18/75 76/19/76 80/19/80 79/18/79 
f 76/19/76 74/20/74 78/20/78 80/19/80 
f 78/20/78 77/17/77 70/17/70 69/20/69 
f 77/17/77 79/18/79 71/18/71 70/17/70 
f 79/18/79 80/19/80 72/19/72 71/18/71 
f 80/19/80 78/20/78 69/20/69 72/19/72 
# 14 polygons

#
# object Box011
#

v  0.7008 1.6584 -2.2048
v  -0.1189 1.6584 -2.5724
v  0.1013 1.6584 -3.0634
v  0.9210 1.6584 -2.6957
v  -1.1860 6.5573 1.4104
v  -1.1808 6.6100 1.3989
v  -1.5590 6.6100 1.2293
v  -1.5641 6.5573 1.2408
v  0.6191 3.4521 -2.0227
v  0.3989 3.4521 -1.5317
v  -0.2005 3.4521 -2.3904
v  -0.4208 3.4521 -1.8994
v  -0.1415 5.2908 -0.5634
v  -0.2825 5.2908 -0.2491
v  -0.7846 5.2908 -0.8519
v  -0.9256 5.2908 -0.5375
# 16 vertices

vn 0.3659 -0.6642 0.6519
vn -0.7302 -0.6642 0.1602
vn -0.2288 -0.4613 -0.8572
vn 0.7923 -0.4613 -0.3992
vn 0.2103 -0.2872 0.9345
vn 0.3632 0.7687 0.5265
vn -0.6348 0.7687 0.0788
vn -0.8378 -0.2872 0.4644
vn 0.8688 0.3991 -0.2931
vn 0.4457 -0.3132 0.8386
vn -0.3589 0.3991 -0.8438
vn -0.9227 -0.3132 0.2248
vn 0.7899 0.5946 -0.1497
vn 0.5092 -0.4286 0.7463
vn -0.4135 0.5946 -0.6895
vn -0.8960 -0.4286 0.1161
# 16 vertex normals

vt 1.0000 0.0000 0.0000
vt 1.0000 1.0000 0.0000
vt 0.0000 1.0000 0.0000
vt 0.0000 0.0000 0.0000
# 4 texture coords

o Box011
g Box011
usemtl wire_061135006
s 2
f 81/21/81 82/22/82 83/23/83 84/24/84 
s 4
f 85/24/85 86/21/86 87/22/87 88/23/88 
s 8
f 81/24/81 84/21/84 89/22/89 90/23/90 
s 16
f 84/24/84 83/21/83 91/22/91 89/23/89 
s 32
f 83/24/83 82/21/82 92/22/92 91/23/91 
s 64
f 82/24/82 81/21/81 90/22/90 92/23/92 
s off
f 90/24/90 89/21/89 93/21/93 94/24/94 
f 89/21/89 91/22/91 95/22/95 93/21/93 
f 91/22/91 92/23/92 96/23/96 95/22/95 
f 92/23/92 90/24/90 94/24/94 96/23/96 
f 94/24/94 93/21/93 86/21/86 85/24/85 
f 93/21/93 95/22/95 87/22/87 86/21/86 
f 95/22/95 96/23/96 88/23/88 87/22/87 
f 96/23/96 94/24/94 85/24/85 88/23/88 
# 14 polygons

#
# object Box014
#

v  -4.3661 1.6584 -6.1888
v  -3.9082 1.6584 -6.9617
v  -3.4452 1.6584 -6.6874
v  -3.9031 1.6584 -5.9145
v  -7.7449 6.5573 -8.4719
v  -7.7341 6.6100 -8.4655
v  -7.5229 6.6100 -8.8221
v  -7.5337 6.5573 -8.8285
v  -4.5377 3.4521 -6.2905
v  -5.0007 3.4521 -6.5648
v  -4.0798 3.4521 -7.0634
v  -4.5428 3.4521 -7.3377
v  -5.9018 5.2908 -7.2112
v  -6.1982 5.2908 -7.3868
v  -5.5425 5.2908 -7.8175
v  -5.8389 5.2908 -7.9931
# 16 vertices

vn -0.6891 -0.6642 0.2900
vn -0.0767 -0.6642 -0.7436
vn 0.8776 -0.4613 -0.1304
vn 0.3071 -0.4613 0.8324
vn -0.9523 -0.2872 0.1033
vn -0.5642 0.7687 0.3014
vn -0.0066 0.7687 -0.6396
vn -0.3668 -0.2872 -0.8849
vn 0.1931 0.3991 0.8964
vn -0.8836 -0.3132 0.3481
vn 0.8789 0.3991 -0.2612
vn -0.1191 -0.3132 -0.9422
vn 0.0595 0.5946 0.8018
vn -0.7991 -0.4286 0.4216
vn 0.7318 0.5946 -0.3329
vn -0.0141 -0.4286 -0.9034
# 16 vertex normals

vt 1.0000 0.0000 0.0000
vt 1.0000 1.0000 0.0000
vt 0.0000 1.0000 0.0000
vt 0.0000 0.0000 0.0000
# 4 texture coords

o Box014
g Box014
usemtl wire_061135006
s 2
f 97/25/97 98/26/98 99/27/99 100/28/100 
s 4
f 101/28/101 102/25/102 103/26/103 104/27/104 
s 8
f 97/28/97 100/25/100 105/26/105 106/27/106 
s 16
f 100/28/100 99/25/99 107/26/107 105/27/105 
s 32
f 99/28/99 98/25/98 108/26/108 107/27/107 
s 64
f 98/28/98 97/25/97 106/26/106 108/27/108 
s off
f 106/28/106 105/25/105 109/25/109 110/28/110 
f 105/25/105 107/26/107 111/26/111 109/25/109 
f 107/26/107 108/27/108 112/27/112 111/26/111 
f 108/27/108 106/28/106 110/28/110 112/27/112 
f 110/28/110 109/25/109 102/25/102 101/28/101 
f 109/25/109 111/26/111 103/26/103 102/25/102 
f 111/26/111 112/27/112 104/27/104 103/26/103 
f 112/27/112 110/28/110 101/28/101 104/27/104 
# 14 polygons

#
# object Box017
#

v  4.7456 1.6584 -7.3927
v  5.4193 1.6584 -6.7985
v  5.0633 1.6584 -6.3949
v  4.3896 1.6584 -6.9892
v  7.6200 6.5573 -10.2854
v  7.6116 6.6100 -10.2760
v  7.9224 6.6100 -10.0018
v  7.9308 6.5573 -10.0112
v  4.8776 3.4521 -7.5424
v  5.2336 3.4521 -7.9459
v  5.5513 3.4521 -6.9481
v  5.9073 3.4521 -7.3516
v  6.0369 5.2908 -8.7103
v  6.2649 5.2908 -8.9687
v  6.5655 5.2908 -8.2441
v  6.7934 5.2908 -8.5024
# 16 vertices

vn -0.1561 -0.6642 -0.7311
vn 0.7449 -0.6642 0.0636
vn -0.0359 -0.4613 0.8865
vn -0.8751 -0.4613 0.1462
vn 0.0764 -0.2872 -0.9548
vn -0.1907 0.7687 -0.6105
vn 0.6296 0.7687 0.1130
vn 0.9378 -0.2872 -0.1950
vn -0.9167 0.3991 0.0222
vn -0.1768 -0.3132 -0.9331
vn 0.0924 0.3991 0.9123
vn 0.9478 -0.3132 0.0591
vn -0.7988 0.5946 -0.0914
vn -0.2648 -0.4286 -0.8638
vn 0.1903 0.5946 0.7812
vn 0.8901 -0.4286 0.1550
# 16 vertex normals

vt 1.0000 0.0000 0.0000
vt 1.0000 1.0000 0.0000
vt 0.0000 1.0000 0.0000
vt 0.0000 0.0000 0.0000
# 4 texture coords

o Box017
g Box017
usemtl wire_061135006
s 2
f 113/29/113 114/30/114 115/31/115 116/32/116 
s 4
f 117/32/117 118/29/118 119/30/119 120/31/120 
s 8
f 113/32/113 116/29/116 121/30/121 122/31/122 
s 16
f 116/32/116 115/29/115 123/30/123 121/31/121 
s 32
f 115/32/115 114/29/114 124/30/124 123/31/123 
s 64
f 114/32/114 113/29/113 122/30/122 124/31/124 
s off
f 122/32/122 121/29/121 125/29/125 126/32/126 
f 121/29/121 123/30/123 127/30/127 125/29/125 
f 123/30/123 124/31/124 128/31/128 127/30/127 
f 124/31/124 122/32/122 126/32/126 128/31/128 
f 126/32/126 125/29/125 118/29/118 117/32/117 
f 125/29/125 127/30/127 119/30/119 118/29/118 
f 127/30/127 128/31/128 120/31/120 119/30/119 
f 128/31/128 126/32/126 117/32/117 120/31/120 
# 14 polygons

#
# object Box018
#

v  2.8824 1.6584 -1.8533
v  3.1471 1.6584 -0.9949
v  2.6329 1.6584 -0.8363
v  2.3682 1.6584 -1.6947
v  6.8436 6.5573 -2.8218
v  6.8315 6.6100 -2.8181
v  6.9537 6.6100 -2.4221
v  6.9657 6.5573 -2.4258
v  3.0730 3.4521 -1.9121
v  3.5872 3.4521 -2.0707
v  3.3378 3.4521 -1.0537
v  3.8520 3.4521 -1.2123
v  4.6713 5.2908 -2.3038
v  5.0006 5.2908 -2.4053
v  4.8791 5.2908 -1.6303
v  5.2083 5.2908 -1.7319
# 16 vertices

vn 0.2482 -0.6642 -0.7052
vn 0.6023 -0.6642 0.4428
vn -0.4930 -0.4613 0.7376
vn -0.8229 -0.4613 -0.3318
vn 0.5633 -0.2872 -0.7747
vn 0.1558 0.7687 -0.6204
vn 0.4782 0.7687 0.4249
vn 0.9018 -0.2872 0.3229
vn -0.7936 0.3991 -0.4593
vn 0.3358 -0.3132 -0.8883
vn -0.3971 0.3991 0.8265
vn 0.7779 -0.3132 0.5448
vn -0.6339 0.5946 -0.4946
vn 0.2246 -0.4286 -0.8751
vn -0.2451 0.5946 0.7657
vn 0.6785 -0.4286 0.5965
# 16 vertex normals

vt 1.0000 0.0000 0.0000
vt 1.0000 1.0000 0.0000
vt 0.0000 1.0000 0.0000
vt 0.0000 0.0000 0.0000
# 4 texture coords

o Box018
g Box018
usemtl wire_061135006
s 2
f 129/33/129 130/34/130 131/35/131 132/36/132 
s 4
f 133/36/133 134/33/134 135/34/135 136/35/136 
s 8
f 129/36/129 132/33/132 137/34/137 138/35/138 
s 16
f 132/36/132 131/33/131 139/34/139 137/35/137 
s 32
f 131/36/131 130/33/130 140/34/140 139/35/139 
s 64
f 130/36/130 129/33/129 138/34/138 140/35/140 
s off
f 138/36/138 137/33/137 141/33/141 142/36/142 
f 137/33/137 139/34/139 143/34/143 141/33/141 
f 139/34/139 140/35/140 144/35/144 143/34/143 
f 140/35/140 138/36/138 142/36/142 144/35/144 
f 142/36/142 141/33/141 134/33/134 133/36/133 
f 141/33/141 143/34/143 135/34/135 134/33/134 
f 143/34/143 144/35/144 136/35/136 135/34/135 
f 144/35/144 142/36/142 133/36/133 136/35/136 
# 14 polygons

#
# object Box019
#

v  -0.8020 1.6584 1.7631
v  -0.9708 1.6584 2.6454
v  -1.4993 1.6584 2.5444
v  -1.3306 1.6584 1.6620
v  3.1508 6.5573 2.7653
v  3.1384 6.6100 2.7629
v  3.0606 6.6100 3.1700
v  3.0729 6.5573 3.1724
v  -0.6061 3.4521 1.8006
v  -0.0775 3.4521 1.9016
v  -0.7748 3.4521 2.6829
v  -0.2463 3.4521 2.7840
v  0.9893 5.2908 2.2042
v  1.3277 5.2908 2.2689
v  0.8569 5.2908 2.8964
v  1.1954 5.2908 2.9611
# 16 vertices

vn 0.5499 -0.6642 -0.5064
vn 0.3243 -0.6642 0.6736
vn -0.7814 -0.4613 0.4203
vn -0.5712 -0.4613 -0.6789
vn 0.8608 -0.2872 -0.4201
vn 0.4285 0.7687 -0.4749
vn 0.2231 0.7687 0.5995
vn 0.6451 -0.2872 0.7081
vn -0.4856 0.3991 -0.7778
vn 0.7132 -0.3132 -0.6271
vn -0.7383 0.3991 0.5438
vn 0.4315 -0.3132 0.8460
vn -0.3279 0.5946 -0.7341
vn 0.6088 -0.4286 -0.6676
vn -0.5756 0.5946 0.5614
vn 0.3195 -0.4286 0.8451
# 16 vertex normals

vt 1.0000 0.0000 0.0000
vt 1.0000 1.0000 0.0000
vt 0.0000 1.0000 0.0000
vt 0.0000 0.0000 0.0000
# 4 texture coords

o Box019
g Box019
usemtl wire_061135006
s 2
f 145/37/145 146/38/146 147/39/147 148/40/148 
s 4
f 149/40/149 150/37/150 151/38/151 152/39/152 
s 8
f 145/40/145 148/37/148 153/38/153 154/39/154 
s 16
f 148/40/148 147/37/147 155/38/155 153/39/153 
s 32
f 147/40/147 146/37/146 156/38/156 155/39/155 
s 64
f 146/40/146 145/37/145 154/38/154 156/39/156 
s off
f 154/40/154 153/37/153 157/37/157 158/40/158 
f 153/37/153 155/38/155 159/38/159 157/37/157 
f 155/38/155 156/39/156 160/39/160 159/38/159 
f 156/39/156 154/40/154 158/40/158 160/39/160 
f 158/40/158 157/37/157 150/37/150 149/40/149 
f 157/37/157 159/38/159 151/38/151 150/37/150 
f 159/38/159 160/39/160 152/39/152 151/38/151 
f 160/39/160 158/40/158 149/40/149 152/39/152 
# 14 polygons

#
# object Box021
#

v  5.6763 1.6584 1.6282
v  4.8448 1.6584 1.9682
v  4.6411 1.6584 1.4701
v  5.4726 1.6584 1.1301
v  6.9931 6.5573 5.4876
v  6.9884 6.6100 5.4760
v  6.6048 6.6100 5.6328
v  6.6095 6.5573 5.6445
v  5.7518 3.4521 1.8129
v  5.9555 3.4521 2.3109
v  4.9203 3.4521 2.1529
v  5.1240 3.4521 2.6510
v  6.2840 5.2908 3.3701
v  6.4144 5.2908 3.6890
v  5.6317 5.2908 3.6368
v  5.7621 5.2908 3.9557
# 16 vertices

vn 0.7244 -0.6642 0.1845
vn -0.3876 -0.6642 0.6393
vn -0.7785 -0.4613 -0.4255
vn 0.2573 -0.4613 -0.8491
vn 0.8217 -0.2872 0.4922
vn 0.6318 0.7687 0.1000
vn -0.3807 0.7687 0.5140
vn -0.2414 -0.2872 0.9269
vn 0.3869 0.3991 -0.8313
vn 0.9146 -0.3132 0.2556
vn -0.8585 0.3991 -0.3220
vn -0.4735 -0.3132 0.8232
vn 0.4363 0.5946 -0.6753
vn 0.8916 -0.4286 0.1460
vn -0.7845 0.5946 -0.1761
vn -0.5339 -0.4286 0.7289
# 16 vertex normals

vt 1.0000 0.0000 0.0000
vt 1.0000 1.0000 0.0000
vt 0.0000 1.0000 0.0000
vt 0.0000 0.0000 0.0000
# 4 texture coords

o Box021
g Box021
usemtl wire_061135006
s 2
f 161/41/161 162/42/162 163/43/163 164/44/164 
s 4
f 165/44/165 166/41/166 167/42/167 168/43/168 
s 8
f 161/44/161 164/41/164 169/42/169 170/43/170 
s 16
f 164/44/164 163/41/163 171/42/171 169/43/169 
s 32
f 163/44/163 162/41/162 172/42/172 171/43/171 
s 64
f 162/44/162 161/41/161 170/42/170 172/43/172 
s off
f 170/44/170 169/41/169 173/41/173 174/44/174 
f 169/41/169 171/42/171 175/42/175 173/41/173 
f 171/42/171 172/43/172 176/43/176 175/42/175 
f 172/43/172 170/44/170 174/44/174 176/43/176 
f 174/44/174 173/41/173 166/41/166 165/44/165 
f 173/41/173 175/42/175 167/42/167 166/41/166 
f 175/42/175 176/43/176 168/43/168 167/42/167 
f 176/43/176 174/44/174 165/44/165 168/43/168 
# 14 polygons

#
# object Box022
#

v  0.9025 1.6584 -7.4309
v  0.0093 1.6584 -7.5259
v  0.0662 1.6584 -8.0610
v  0.9595 1.6584 -7.9660
v  0.2315 6.5573 -3.4086
v  0.2328 6.6100 -3.4211
v  -0.1793 6.6100 -3.4650
v  -0.1806 6.5573 -3.4524
v  0.8815 3.4521 -7.2325
v  0.8245 3.4521 -6.6974
v  -0.0118 3.4521 -7.3275
v  -0.0687 3.4521 -6.7924
v  0.6115 5.2908 -5.6092
v  0.5751 5.2908 -5.2666
v  -0.0893 5.2908 -5.6837
v  -0.1258 5.2908 -5.3411
# 16 vertices

vn 0.5503 -0.6642 0.5060
vn -0.6444 -0.6642 0.3790
vn -0.4836 -0.4613 -0.7438
vn 0.6292 -0.4613 -0.6255
vn 0.4900 -0.2872 0.8230
vn 0.5088 0.7687 0.3877
vn -0.5789 0.7687 0.2720
vn -0.6522 -0.2872 0.7016
vn 0.7349 0.3991 -0.5484
vn 0.6840 -0.3132 0.6588
vn -0.6031 0.3991 -0.6907
vn -0.8073 -0.3132 0.5002
vn 0.7044 0.5946 -0.3876
vn 0.7157 -0.4286 0.5514
vn -0.6071 0.5946 -0.5271
vn -0.8157 -0.4286 0.3885
# 16 vertex normals

vt 1.0000 0.0000 0.0000
vt 1.0000 1.0000 0.0000
vt 0.0000 1.0000 0.0000
vt 0.0000 0.0000 0.0000
# 4 texture coords

o Box022
g Box022
usemtl wire_061135006
s 2
f 177/45/177 178/46/178 179/47/179 180/48/180 
s 4
f 181/48/181 182/45/182 183/46/183 184/47/184 
s 8
f 177/48/177 180/45/180 185/46/185 186/47/186 
s 16
f 180/48/180 179/45/179 187/46/187 185/47/185 
s 32
f 179/48/179 178/45/178 188/46/188 187/47/187 
s 64
f 178/48/178 177/45/177 186/46/186 188/47/188 
s off
f 186/48/186 185/45/185 189/45/189 190/48/190 
f 185/45/185 187/46/187 191/46/191 189/45/189 
f 187/46/187 188/47/188 192/47/192 191/46/191 
f 188/47/188 186/48/186 190/48/190 192/47/192 
f 190/48/190 189/45/189 182/45/182 181/48/181 
f 189/45/189 191/46/191 183/46/183 182/45/182 
f 191/46/191 192/47/192 184/47/184 183/46/183 
f 192/47/192 190/48/190 181/48/181 184/47/184 
# 14 polygons

#
# object Box023
#

v  6.6461 1.6584 -6.2424
v  5.8265 1.6584 -6.6100
v  6.0467 1.6584 -7.1010
v  6.8663 1.6584 -6.7334
v  4.7594 6.5573 -2.6272
v  4.7645 6.6100 -2.6387
v  4.3864 6.6100 -2.8083
v  4.3812 6.5573 -2.7969
v  6.5645 3.4521 -6.0603
v  6.3442 3.4521 -5.5694
v  5.7448 3.4521 -6.4280
v  5.5246 3.4521 -5.9370
v  5.8038 5.2908 -4.6010
v  5.6628 5.2908 -4.2867
v  5.1608 5.2908 -4.8895
v  5.0198 5.2908 -4.5751
# 16 vertices

vn 0.3659 -0.6642 0.6519
vn -0.7302 -0.6642 0.1602
vn -0.2288 -0.4613 -0.8572
vn 0.7923 -0.4613 -0.3992
vn 0.2103 -0.2872 0.9345
vn 0.3632 0.7687 0.5265
vn -0.6348 0.7687 0.0788
vn -0.8378 -0.2872 0.4644
vn 0.8688 0.3991 -0.2931
vn 0.4457 -0.3132 0.8386
vn -0.3589 0.3991 -0.8438
vn -0.9227 -0.3132 0.2248
vn 0.7899 0.5946 -0.1497
vn 0.5092 -0.4286 0.7463
vn -0.4135 0.5946 -0.6895
vn -0.8960 -0.4286 0.1161
# 16 vertex normals

vt 1.0000 0.0000 0.0000
vt 1.0000 1.0000 0.0000
vt 0.0000 1.0000 0.0000
vt 0.0000 0.0000 0.0000
# 4 texture coords

o Box023
g Box023
usemtl wire_061135006
s 2
f 193/49/193 194/50/194 195/51/195 196/52/196 
s 4
f 197/52/197 198/49/198 199/50/199 200/51/200 
s 8
f 193/52/193 196/49/196 201/50/201 202/51/202 
s 16
f 196/52/196 195/49/195 203/50/203 201/51/201 
s 32
f 195/52/195 194/49/194 204/50/204 203/51/203 
s 64
f 194/52/194 193/49/193 202/50/202 204/51/204 
s off
f 202/52/202 201/49/201 205/49/205 206/52/206 
f 201/49/201 203/50/203 207/50/207 205/49/205 
f 203/50/203 204/51/204 208/51/208 207/50/207 
f 204/51/204 202/52/202 206/52/206 208/51/208 
f 206/52/206 205/49/205 198/49/198 197/52/197 
f 205/49/205 207/50/207 199/50/199 198/49/198 
f 207/50/207 208/51/208 200/51/200 199/50/199 
f 208/51/208 206/52/206 197/52/197 200/51/200 
# 14 polygons

#
# object Box024
#

v  4.7454 1.6584 -5.0961
v  4.2468 1.6584 -5.8434
v  4.6945 1.6584 -6.1420
v  5.1930 1.6584 -5.3947
v  1.2248 6.5573 -3.0383
v  1.2352 6.6100 -3.0453
v  1.0052 6.6100 -3.3901
v  0.9948 6.5573 -3.3831
v  4.5794 3.4521 -4.9854
v  4.1318 3.4521 -4.6868
v  4.0809 3.4521 -5.7327
v  3.6332 3.4521 -5.4341
v  3.1591 5.2908 -4.1542
v  2.8725 5.2908 -3.9630
v  2.7680 5.2908 -4.7405
v  2.4813 5.2908 -4.5493
# 16 vertices

vn -0.0368 -0.6642 0.7467
vn -0.7036 -0.6642 -0.2527
vn 0.2622 -0.4613 -0.8476
vn 0.8833 -0.4613 0.0834
vn -0.3190 -0.2872 0.9032
vn 0.0276 0.7687 0.6390
vn -0.5794 0.7687 -0.2709
vn -0.9564 -0.2872 -0.0523
vn 0.8916 0.3991 0.2139
vn -0.0686 -0.3132 0.9472
vn 0.1449 0.3991 -0.9054
vn -0.9009 -0.3132 -0.3004
vn 0.7486 0.5946 0.2934
vn 0.0342 -0.4286 0.9028
vn 0.0166 0.5946 -0.8038
vn -0.8205 -0.4286 -0.3783
# 16 vertex normals

vt 1.0000 0.0000 0.0000
vt 1.0000 1.0000 0.0000
vt 0.0000 1.0000 0.0000
vt 0.0000 0.0000 0.0000
# 4 texture coords

o Box024
g Box024
usemtl wire_061135006
s 2
f 209/53/209 210/54/210 211/55/211 212/56/212 
s 4
f 213/56/213 214/53/214 215/54/215 216/55/216 
s 8
f 209/56/209 212/53/212 217/54/217 218/55/218 
s 16
f 212/56/212 211/53/211 219/54/219 217/55/217 
s 32
f 211/56/211 210/53/210 220/54/220 219/55/219 
s 64
f 210/56/210 209/53/209 218/54/218 220/55/220 
s off
f 218/56/218 217/53/217 221/53/221 222/56/222 
f 217/53/217 219/54/219 223/54/223 221/53/221 
f 219/54/219 220/55/220 224/55/224 223/54/223 
f 220/55/220 218/56/218 222/56/222 224/55/224 
f 222/56/222 221/53/221 214/53/214 213/56/213 
f 221/53/221 223/54/223 215/54/215 214/53/214 
f 223/54/223 224/55/224 216/55/216 215/54/215 
f 224/55/224 222/56/222 213/56/213 216/55/216 
# 14 polygons

