# 3ds Max Wavefront OBJ Exporter v0.99 - (c)2007 guruware
# File Created: 30.11.2022 21:56:50

mtllib Red&YellowHibiscus.mtl

#
# object Box001
#

v  -3.1426 0.1247 2.9418
v  -2.7547 0.1247 1.5358
v  0.8383 0.1247 2.5271
v  0.4504 0.1247 3.9330
v  -7.1600 13.2496 16.6111
v  -3.5671 13.2496 17.6023
v  -3.5277 13.4251 17.4596
v  -7.1206 13.4251 16.4683
v  0.2736 4.3751 4.5738
v  -3.3194 4.3751 3.5826
v  0.6615 4.3751 3.1679
v  -2.9315 4.3751 2.1767
v  0.5457 7.2123 6.0961
v  -4.3335 7.2123 4.7500
v  1.5968 7.5805 5.0658
v  -4.7076 7.5805 3.3265
v  0.8265 9.7095 8.9424
v  -6.0340 9.7095 7.0497
v  2.8009 10.2487 8.4299
v  -7.4663 10.2487 5.5973
v  0.2437 11.4056 12.2075
v  -7.2078 11.4056 10.1517
v  3.2437 12.0860 12.3838
v  -9.8739 12.0860 8.7649
v  -1.3828 12.4060 15.8657
v  -7.6871 12.4060 14.1264
v  0.9413 13.1559 16.3532
v  -9.9324 13.1559 13.3533
# 28 vertices

vn -0.7074 -0.5978 0.3770
vn -0.3925 -0.5556 -0.7330
vn 0.7128 -0.5556 -0.4282
vn 0.4142 -0.5979 0.6863
vn -0.6587 -0.1866 0.7289
vn 0.1330 -0.1840 0.9739
vn 0.0479 0.8503 0.5242
vn -0.3309 0.8449 0.4204
vn 0.4992 -0.1636 0.8509
vn -0.8649 -0.1636 0.4746
vn 0.8389 0.0620 -0.5407
vn -0.4430 0.0620 -0.8944
vn 0.3170 -0.3854 0.8666
vn -0.7165 -0.3854 0.5814
vn 0.9108 0.0311 -0.4116
vn -0.5710 0.0311 -0.8204
vn 0.1564 -0.5986 0.7857
vn -0.5371 -0.5986 0.5943
vn 0.9679 0.0538 -0.2454
vn -0.7052 0.0538 -0.7070
vn 0.0828 -0.7829 0.6166
vn -0.3873 -0.7829 0.4869
vn 0.9729 0.2128 0.0900
vn -0.8814 0.2128 -0.4216
vn 0.0957 -0.7841 0.6131
vn -0.3885 -0.7973 0.4620
vn 0.6933 0.4288 0.5792
vn -0.8970 0.4243 0.1236
# 28 vertex normals

vt 1.0000 0.0000 0.0000
vt 1.0000 1.0000 0.0000
vt 0.0000 1.0000 0.0000
vt 0.0000 0.0000 0.0000
# 4 texture coords

o Box001
g Box001
usemtl wire_154215229
s 2
f 1/1/1 2/2/2 3/3/3 4/4/4 
s 4
f 5/4/5 6/1/6 7/2/7 8/3/8 
s 8
f 1/4/1 4/1/4 9/2/9 10/3/10 
s 16
f 4/4/4 3/1/3 11/2/11 9/3/9 
s 32
f 3/4/3 2/1/2 12/2/12 11/3/11 
s 64
f 2/4/2 1/1/1 10/2/10 12/3/12 
s off
f 10/4/10 9/1/9 13/1/13 14/4/14 
f 9/1/9 11/2/11 15/2/15 13/1/13 
f 11/2/11 12/3/12 16/3/16 15/2/15 
f 12/3/12 10/4/10 14/4/14 16/3/16 
f 14/4/14 13/1/13 17/1/17 18/4/18 
f 13/1/13 15/2/15 19/2/19 17/1/17 
f 15/2/15 16/3/16 20/3/20 19/2/19 
f 16/3/16 14/4/14 18/4/18 20/3/20 
f 18/4/18 17/1/17 21/1/21 22/4/22 
f 17/1/17 19/2/19 23/2/23 21/1/21 
f 19/2/19 20/3/20 24/3/24 23/2/23 
f 20/3/20 18/4/18 22/4/22 24/3/24 
f 22/4/22 21/1/21 25/1/25 26/4/26 
f 21/1/21 23/2/23 27/2/27 25/1/25 
f 23/2/23 24/3/24 28/3/28 27/2/27 
f 24/3/24 22/4/22 26/4/26 28/3/28 
f 26/4/26 25/1/25 6/1/6 5/4/5 
f 25/1/25 27/2/27 7/2/7 6/1/6 
f 27/2/27 28/3/28 8/3/8 7/2/7 
f 28/3/28 26/4/26 5/4/5 8/3/8 
# 26 polygons

#
# object Box002
#

v  2.0932 0.1247 3.2516
v  0.8759 0.1247 2.4483
v  2.9288 0.1247 -0.6626
v  4.1461 0.1247 0.1407
v  14.0051 13.2496 11.4381
v  16.0580 13.2496 8.3272
v  15.9344 13.4251 8.2456
v  13.8815 13.4251 11.3565
v  4.7009 4.3751 0.5069
v  2.6481 4.3751 3.6177
v  3.4836 4.3751 -0.2964
v  1.4308 4.3751 2.8145
v  6.2327 7.2123 0.7184
v  3.4450 7.2123 4.9429
v  5.5776 7.5805 -0.5996
v  1.9756 7.5805 4.8589
v  9.0266 9.7095 1.3308
v  5.1068 9.7095 7.2709
v  9.1492 10.2487 -0.7054
v  3.2829 10.2487 8.1843
v  11.9518 11.4056 2.8939
v  7.6943 11.4056 9.3456
v  13.0465 12.0860 0.0951
v  5.5516 12.0860 11.4528
v  14.9285 12.4060 5.5711
v  11.3264 12.4060 11.0296
v  16.1103 13.1559 3.5114
v  9.8975 13.1559 12.9261
# 28 vertices

vn 0.1399 -0.5979 0.7893
vn -0.8184 -0.5556 0.1467
vn -0.1871 -0.5555 -0.8102
vn 0.7807 -0.5978 -0.1817
vn 0.4740 -0.2064 0.8560
vn 0.9653 -0.2034 0.1637
vn 0.5267 0.8427 0.1116
vn 0.2956 0.8361 0.4620
vn 0.9635 -0.1636 -0.2119
vn 0.1842 -0.1636 0.9692
vn -0.2550 0.0620 -0.9650
vn -0.9875 0.0620 0.1450
vn 0.9221 -0.3854 -0.0338
vn 0.3316 -0.3854 0.8611
vn -0.1100 0.0311 -0.9934
vn -0.9567 0.0311 0.2895
vn 0.7955 -0.5986 0.0940
vn 0.3993 -0.5986 0.6945
vn 0.0657 0.0538 -0.9964
vn -0.8903 0.0538 0.4522
vn 0.6120 -0.7829 0.1118
vn 0.3435 -0.7829 0.5188
vn 0.3862 0.2128 -0.8975
vn -0.6733 0.2128 0.7080
vn 0.6014 -0.7942 0.0875
vn 0.3035 -0.8086 0.5041
vn 0.7599 0.4269 -0.4903
vn -0.1744 0.4218 0.8898
# 28 vertex normals

vt 1.0000 0.0000 0.0000
vt 1.0000 1.0000 0.0000
vt 0.0000 1.0000 0.0000
vt 0.0000 0.0000 0.0000
# 4 texture coords

o Box002
g Box002
usemtl wire_154215229
s 2
f 29/5/29 30/6/30 31/7/31 32/8/32 
s 4
f 33/8/33 34/5/34 35/6/35 36/7/36 
s 8
f 29/8/29 32/5/32 37/6/37 38/7/38 
s 16
f 32/8/32 31/5/31 39/6/39 37/7/37 
s 32
f 31/8/31 30/5/30 40/6/40 39/7/39 
s 64
f 30/8/30 29/5/29 38/6/38 40/7/40 
s off
f 38/8/38 37/5/37 41/5/41 42/8/42 
f 37/5/37 39/6/39 43/6/43 41/5/41 
f 39/6/39 40/7/40 44/7/44 43/6/43 
f 40/7/40 38/8/38 42/8/42 44/7/44 
f 42/8/42 41/5/41 45/5/45 46/8/46 
f 41/5/41 43/6/43 47/6/47 45/5/45 
f 43/6/43 44/7/44 48/7/48 47/6/47 
f 44/7/44 42/8/42 46/8/46 48/7/48 
f 46/8/46 45/5/45 49/5/49 50/8/50 
f 45/5/45 47/6/47 51/6/51 49/5/49 
f 47/6/47 48/7/48 52/7/52 51/6/51 
f 48/7/48 46/8/46 50/8/50 52/7/52 
f 50/8/50 49/5/49 53/5/53 54/8/54 
f 49/5/49 51/6/51 55/6/55 53/5/53 
f 51/6/51 52/7/52 56/7/56 55/6/55 
f 52/7/52 50/8/50 54/8/54 56/7/56 
f 54/8/54 53/5/53 34/5/34 33/8/33 
f 53/5/53 55/6/55 35/6/35 34/5/34 
f 55/6/55 56/7/56 36/7/36 35/6/35 
f 56/7/56 54/8/54 33/8/33 36/7/36 
# 26 polygons

#
# object Box003
#

v  4.1720 0.1247 -1.7218
v  3.0416 0.1247 -0.8003
v  0.6866 0.1247 -3.6892
v  1.8170 0.1247 -4.6107
v  15.6143 13.2496 -10.6360
v  13.2593 13.2496 -13.5248
v  13.1445 13.4251 -13.4313
v  15.4995 13.4251 -10.5424
v  2.3323 4.3751 -5.0307
v  4.6873 4.3751 -2.1418
v  1.2018 4.3751 -4.1092
v  3.5569 4.3751 -1.2203
v  2.9920 7.2123 -6.4293
v  6.1901 7.2123 -2.5062
v  1.5385 7.5805 -6.1981
v  5.6707 7.5805 -1.1291
v  4.4115 9.7095 -8.9124
v  8.9083 9.7095 -3.3962
v  2.5051 10.2487 -9.6379
v  9.2348 10.2487 -1.3826
v  6.7775 11.4056 -11.2366
v  11.6617 11.4056 -5.2453
v  4.4340 12.0860 -13.1178
v  13.0320 12.0860 -2.5706
v  10.2221 12.4060 -13.2769
v  14.3543 12.4060 -8.2079
v  8.6098 13.1559 -15.0204
v  15.7371 13.1559 -6.2774
# 28 vertices

vn 0.7950 -0.5979 0.1025
vn -0.1047 -0.5555 0.8249
vn -0.8291 -0.5555 -0.0637
vn 0.0600 -0.5978 -0.7994
vn 0.9593 -0.2113 -0.1876
vn 0.4462 -0.2077 -0.8705
vn 0.2647 0.8414 -0.4712
vn 0.5343 0.8336 -0.1404
vn 0.0858 -0.1636 -0.9828
vn 0.9799 -0.1636 0.1139
vn -0.9971 0.0620 -0.0451
vn -0.1567 0.0620 0.9857
vn 0.2434 -0.3854 -0.8901
vn 0.9208 -0.3854 -0.0590
vn -0.9809 0.0311 -0.1920
vn -0.0097 0.0311 0.9995
vn 0.3275 -0.5986 -0.7311
vn 0.7821 -0.5986 -0.1735
vn -0.9312 0.0538 -0.3605
vn 0.1654 0.0538 0.9848
vn 0.2896 -0.7829 -0.5506
vn 0.5977 -0.7829 -0.1727
vn -0.7411 0.2128 -0.6368
vn 0.4744 0.2128 0.8542
vn 0.2610 -0.7954 -0.5470
vn 0.5675 -0.8121 -0.1354
vn -0.2418 0.4268 -0.8714
vn 0.7948 0.4208 0.4374
# 28 vertex normals

vt 1.0000 0.0000 0.0000
vt 1.0000 1.0000 0.0000
vt 0.0000 1.0000 0.0000
vt 0.0000 0.0000 0.0000
# 4 texture coords

o Box003
g Box003
usemtl wire_154215229
s 2
f 57/9/57 58/10/58 59/11/59 60/12/60 
s 4
f 61/12/61 62/9/62 63/10/63 64/11/64 
s 8
f 57/12/57 60/9/60 65/10/65 66/11/66 
s 16
f 60/12/60 59/9/59 67/10/67 65/11/65 
s 32
f 59/12/59 58/9/58 68/10/68 67/11/67 
s 64
f 58/12/58 57/9/57 66/10/66 68/11/68 
s off
f 66/12/66 65/9/65 69/9/69 70/12/70 
f 65/9/65 67/10/67 71/10/71 69/9/69 
f 67/10/67 68/11/68 72/11/72 71/10/71 
f 68/11/68 66/12/66 70/12/70 72/11/72 
f 70/12/70 69/9/69 73/9/73 74/12/74 
f 69/9/69 71/10/71 75/10/75 73/9/73 
f 71/10/71 72/11/72 76/11/76 75/10/75 
f 72/11/72 70/12/70 74/12/74 76/11/76 
f 74/12/74 73/9/73 77/9/77 78/12/78 
f 73/9/73 75/10/75 79/10/79 77/9/77 
f 75/10/75 76/11/76 80/11/80 79/10/79 
f 76/11/76 74/12/74 78/12/78 80/11/80 
f 78/12/78 77/9/77 81/9/81 82/12/82 
f 77/9/77 79/10/79 83/10/83 81/9/81 
f 79/10/79 80/11/80 84/11/84 83/10/83 
f 80/11/80 78/12/78 82/12/82 84/11/84 
f 82/12/82 81/9/81 62/9/62 61/12/61 
f 81/9/81 83/10/83 63/10/63 62/9/62 
f 83/10/83 84/11/84 64/11/64 63/10/63 
f 84/11/84 82/12/82 61/12/61 64/11/64 
# 26 polygons

#
# object Box004
#

v  -0.0128 0.1247 -5.0067
v  0.4677 0.1247 -3.6297
v  -3.0514 0.1247 -2.4018
v  -3.5319 0.1247 -3.7788
v  -4.9066 13.2496 -18.6114
v  -8.4257 13.2496 -17.3834
v  -8.3769 13.4251 -17.2436
v  -4.8578 13.4251 -18.4715
v  -3.7509 4.3751 -4.4065
v  -0.2318 4.3751 -5.6344
v  -3.2704 4.3751 -3.0295
v  0.2487 4.3751 -4.2574
v  -4.8404 7.2123 -5.5039
v  -0.0615 7.2123 -7.1714
v  -5.1190 7.5805 -4.0587
v  1.0557 7.5805 -6.2132
v  -6.6901 9.7095 -7.6855
v  0.0294 9.7095 -10.0301
v  -8.0226 10.2487 -6.1410
v  2.0335 10.2487 -9.6499
v  -8.0675 11.4056 -10.7025
v  -0.7692 11.4056 -13.2492
v  -10.6355 12.0860 -9.1415
v  2.2125 12.0860 -13.6246
v  -8.8100 12.4060 -14.6366
v  -2.6352 12.4060 -16.7911
v  -10.9990 13.1559 -13.7159
v  -0.3487 13.1559 -17.4321
# 28 vertices

vn 0.3675 -0.5978 -0.7124
vn 0.7396 -0.5555 0.3799
vn -0.3429 -0.5556 0.7575
vn -0.7309 -0.5978 -0.3292
vn 0.0932 -0.2043 -0.9745
vn -0.7024 -0.2058 -0.6814
vn -0.3695 0.8377 -0.4022
vn 0.0267 0.8410 -0.5404
vn -0.8945 -0.1636 -0.4160
vn 0.4415 -0.1636 -0.8822
vn -0.3825 0.0620 0.9219
vn 0.8731 0.0620 0.4837
vn -0.7536 -0.3854 -0.5325
vn 0.2587 -0.3854 -0.8857
vn -0.5152 0.0311 0.8565
vn 0.9362 0.0311 0.3501
vn -0.5754 -0.5986 -0.5573
vn 0.1038 -0.5986 -0.7943
vn -0.6566 0.0538 0.7523
vn 0.9821 0.0538 0.1805
vn -0.4188 -0.7829 -0.4601
vn 0.0416 -0.7829 -0.6208
vn -0.8515 0.2128 0.4793
vn 0.9648 0.2128 -0.1545
vn -0.4171 -0.8053 -0.4213
vn 0.0634 -0.7980 -0.5993
vn -0.9045 0.4230 -0.0545
vn 0.6656 0.4256 -0.6130
# 28 vertex normals

vt 1.0000 0.0000 0.0000
vt 1.0000 1.0000 0.0000
vt 0.0000 1.0000 0.0000
vt 0.0000 0.0000 0.0000
# 4 texture coords

o Box004
g Box004
usemtl wire_154215229
s 2
f 85/13/85 86/14/86 87/15/87 88/16/88 
s 4
f 89/16/89 90/13/90 91/14/91 92/15/92 
s 8
f 85/16/85 88/13/88 93/14/93 94/15/94 
s 16
f 88/16/88 87/13/87 95/14/95 93/15/93 
s 32
f 87/16/87 86/13/86 96/14/96 95/15/95 
s 64
f 86/16/86 85/13/85 94/14/94 96/15/96 
s off
f 94/16/94 93/13/93 97/13/97 98/16/98 
f 93/13/93 95/14/95 99/14/99 97/13/97 
f 95/14/95 96/15/96 100/15/100 99/14/99 
f 96/15/96 94/16/94 98/16/98 100/15/100 
f 98/16/98 97/13/97 101/13/101 102/16/102 
f 97/13/97 99/14/99 103/14/103 101/13/101 
f 99/14/99 100/15/100 104/15/104 103/14/103 
f 100/15/100 98/16/98 102/16/102 104/15/104 
f 102/16/102 101/13/101 105/13/105 106/16/106 
f 101/13/101 103/14/103 107/14/107 105/13/105 
f 103/14/103 104/15/104 108/15/108 107/14/107 
f 104/15/104 102/16/102 106/16/106 108/15/108 
f 106/16/106 105/13/105 109/13/109 110/16/110 
f 105/13/105 107/14/107 111/14/111 109/13/109 
f 107/14/107 108/15/108 112/15/112 111/14/111 
f 108/15/108 106/16/106 110/16/110 112/15/112 
f 110/16/110 109/13/109 90/13/90 89/16/89 
f 109/13/109 111/14/111 91/14/91 90/13/90 
f 111/14/111 112/15/112 92/15/92 91/14/91 
f 112/15/112 110/16/110 89/16/89 92/15/92 
# 26 polygons

#
# object Box005
#

v  -4.2677 0.1247 -2.2555
v  -2.8095 0.1247 -2.2788
v  -2.7501 0.1247 1.4479
v  -4.2084 0.1247 1.4712
v  -18.9859 13.2496 -1.9832
v  -18.9265 13.2496 1.7435
v  -18.7785 13.4251 1.7411
v  -18.8379 13.4251 -1.9855
v  -4.8730 4.3751 1.4817
v  -4.9324 4.3751 -2.2449
v  -3.4148 4.3751 1.4585
v  -3.4742 4.3751 -2.2682
v  -6.2573 7.2123 2.1710
v  -6.3379 7.2123 -2.8898
v  -4.9729 7.5805 2.8899
v  -5.0772 7.5805 -3.6492
v  -8.9098 9.7095 3.2411
v  -9.0232 9.7095 -3.8748
v  -7.8625 10.2487 4.9916
v  -8.0322 10.2487 -5.6578
v  -12.2069 11.4056 3.6002
v  -12.3301 11.4056 -4.1287
v  -11.5323 12.0860 6.5288
v  -11.7491 12.0860 -7.0772
v  -16.1749 12.4060 3.0684
v  -16.2791 12.4060 -3.4707
v  -15.9891 13.1559 5.4358
v  -16.1688 13.1559 -5.8428
# 28 vertices

vn -0.5608 -0.5978 -0.5728
vn 0.5930 -0.5556 -0.5828
vn 0.6114 -0.5555 0.5635
vn -0.5422 -0.5979 0.5904
vn -0.8802 -0.2264 -0.4171
vn -0.8625 -0.2268 0.4524
vn -0.5061 0.8295 0.2361
vn -0.5134 0.8305 -0.2161
vn -0.6762 -0.1636 0.7184
vn -0.6987 -0.1636 -0.6965
vn 0.7548 0.0620 0.6530
vn 0.7336 0.0620 -0.6767
vn -0.7424 -0.3854 0.5480
vn -0.7595 -0.3854 -0.5241
vn 0.6512 0.0311 0.7583
vn 0.6267 0.0311 -0.7787
vn -0.7100 -0.5986 0.3711
vn -0.7214 -0.5986 -0.3483
vn 0.5077 0.0538 0.8598
vn 0.4801 0.0538 -0.8756
vn -0.5684 -0.7829 0.2529
vn -0.5762 -0.7829 -0.2347
vn 0.1873 0.2128 0.9590
vn 0.1567 0.2128 -0.9644
vn -0.5152 -0.8145 0.2667
vn -0.5261 -0.8126 -0.2508
vn -0.3257 0.4215 0.8463
vn -0.3554 0.4222 -0.8339
# 28 vertex normals

vt 1.0000 0.0000 0.0000
vt 1.0000 1.0000 0.0000
vt 0.0000 1.0000 0.0000
vt 0.0000 0.0000 0.0000
# 4 texture coords

o Box005
g Box005
usemtl wire_154215229
s 2
f 113/17/113 114/18/114 115/19/115 116/20/116 
s 4
f 117/20/117 118/17/118 119/18/119 120/19/120 
s 8
f 113/20/113 116/17/116 121/18/121 122/19/122 
s 16
f 116/20/116 115/17/115 123/18/123 121/19/121 
s 32
f 115/20/115 114/17/114 124/18/124 123/19/123 
s 64
f 114/20/114 113/17/113 122/18/122 124/19/124 
s off
f 122/20/122 121/17/121 125/17/125 126/20/126 
f 121/17/121 123/18/123 127/18/127 125/17/125 
f 123/18/123 124/19/124 128/19/128 127/18/127 
f 124/19/124 122/20/122 126/20/126 128/19/128 
f 126/20/126 125/17/125 129/17/129 130/20/130 
f 125/17/125 127/18/127 131/18/131 129/17/129 
f 127/18/127 128/19/128 132/19/132 131/18/131 
f 128/19/128 126/20/126 130/20/130 132/19/132 
f 130/20/130 129/17/129 133/17/133 134/20/134 
f 129/17/129 131/18/131 135/18/135 133/17/133 
f 131/18/131 132/19/132 136/19/136 135/18/135 
f 132/19/132 130/20/130 134/20/134 136/19/136 
f 134/20/134 133/17/133 137/17/137 138/20/138 
f 133/17/133 135/18/135 139/18/139 137/17/137 
f 135/18/135 136/19/136 140/19/140 139/18/139 
f 136/19/136 134/20/134 138/20/138 140/19/140 
f 138/20/138 137/17/137 118/17/118 117/20/117 
f 137/17/137 139/18/139 119/18/119 118/17/118 
f 139/18/139 140/19/140 120/19/120 119/18/119 
f 140/19/140 138/20/138 117/20/117 120/19/120 
# 26 polygons

#
# object Box006
#

v  -1.5472 0.2011 0.9575
v  -2.2146 0.0389 -0.3597
v  -0.1962 -0.1696 -0.3597
v  -0.1962 0.0389 1.6131
v  -1.5472 0.2011 -1.6770
v  -0.1962 0.0389 -2.3326
v  1.1548 0.2011 -1.6770
v  1.8222 0.0389 -0.3597
v  1.1548 0.2011 0.9575
v  -0.9779 29.7314 0.4197
v  -0.1988 29.8892 0.5587
v  -0.1962 30.0921 -0.3597
v  -1.1381 29.8892 -0.3523
v  0.5764 29.7314 0.4197
v  0.7406 29.8892 -0.3523
v  0.5764 29.7314 -1.1127
v  -0.1988 29.8892 -1.2632
v  -0.9779 29.7314 -1.1127
v  -1.1808 2.8200 0.5793
v  -0.1962 2.8200 0.8924
v  -0.1962 7.6187 0.6491
v  -0.9984 7.6187 0.3969
v  0.7884 2.8200 0.5793
v  0.6060 7.6187 0.3969
v  0.6060 13.4780 0.3969
v  -0.1962 13.4780 0.6491
v  -0.9984 13.4780 0.3969
v  1.1166 2.8200 -0.3597
v  0.8734 7.6187 -0.3597
v  0.7884 2.8200 -1.2988
v  0.6060 7.6187 -1.1164
v  0.6060 13.4780 -1.1164
v  0.8734 13.4780 -0.3597
v  -0.1962 2.8200 -1.6118
v  -0.1962 7.6187 -1.3686
v  -1.1808 2.8200 -1.2988
v  -0.9984 7.6187 -1.1164
v  -0.9984 13.4780 -1.1164
v  -0.1962 13.4780 -1.3686
v  -1.5090 2.8200 -0.3597
v  -1.2658 7.6187 -0.3597
v  -1.2658 13.4780 -0.3597
v  -1.1038 22.8470 0.5201
v  -0.1988 22.8470 0.8109
v  -0.2065 24.7902 1.2962
v  -1.4202 24.7902 0.8897
v  0.7063 22.8470 0.5201
v  1.0073 24.7902 0.8897
v  1.3083 25.8118 1.2592
v  -0.2142 25.8118 1.7815
v  -1.7366 25.8118 1.2592
v  1.0080 22.8470 -0.3523
v  1.4119 24.7902 -0.3299
v  0.7063 22.8470 -1.2246
v  1.0073 24.7902 -1.5495
v  1.3083 25.8118 -1.8743
v  1.8158 25.8118 -0.3076
v  -0.1988 22.8470 -1.5154
v  -0.2065 24.7902 -1.9560
v  -1.1038 22.8470 -1.2246
v  -1.4202 24.7902 -1.5495
v  -1.7366 25.8118 -1.8743
v  -0.2142 25.8118 -2.3966
v  -1.4055 22.8470 -0.3523
v  -1.8248 24.7902 -0.3299
v  -2.2441 25.8118 -0.3076
v  -0.2167 27.0790 1.9432
v  -1.8421 27.0790 1.3824
v  1.4086 27.0790 1.3824
v  1.3083 28.3244 1.2592
v  -0.2142 28.3244 1.7815
v  -1.7366 28.3244 1.2592
v  1.9504 27.0790 -0.3001
v  1.4086 27.0790 -1.9826
v  1.3083 28.3244 -1.8743
v  1.8158 28.3244 -0.3076
v  -0.2167 27.0790 -2.5434
v  -1.8421 27.0790 -1.9826
v  -1.7366 28.3244 -1.8743
v  -0.2142 28.3244 -2.3966
v  -2.3839 27.0790 -0.3001
v  -2.2441 28.3244 -0.3076
v  -0.2065 29.2806 1.2962
v  -1.4202 29.2806 0.8897
v  1.0073 29.2806 0.8897
v  1.4119 29.2806 -0.3299
v  1.0073 29.2806 -1.5495
v  -0.2065 29.2806 -1.9560
v  -1.4202 29.2806 -1.5495
v  -1.8248 29.2806 -0.3299
v  -0.1962 18.8152 0.6491
v  -0.9984 18.8152 0.3969
v  0.6060 18.8152 0.3969
v  0.8734 18.8152 -0.3597
v  0.6060 18.8152 -1.1164
v  -0.1962 18.8152 -1.3686
v  -0.9984 18.8152 -1.1164
v  -1.2658 18.8152 -0.3597
v  -2.2388 0.6644 -0.3597
v  -1.7281 0.6644 1.1266
v  -1.7281 0.6644 -1.8461
v  -0.1962 0.6644 -2.3416
v  1.3357 0.6644 -1.8461
v  1.8464 0.6644 -0.3597
v  1.3357 0.6644 1.1266
v  -0.1962 0.6644 1.6221
# 106 vertices

vn -0.4885 -0.7142 0.5012
vn -0.7796 -0.6263 -0.0000
vn 0.0000 -1.0000 -0.0000
vn 0.0000 -0.6188 0.7855
vn -0.4885 -0.7142 -0.5012
vn 0.0000 -0.6188 -0.7855
vn 0.4885 -0.7142 -0.5012
vn 0.7796 -0.6263 -0.0000
vn 0.4885 -0.7142 0.5012
vn -0.3522 0.8639 0.3600
vn 0.0012 0.8945 0.4471
vn 0.0009 1.0000 -0.0027
vn -0.4639 0.8859 -0.0038
vn 0.3555 0.8617 0.3621
vn 0.4700 0.8827 -0.0039
vn 0.3618 0.8547 -0.3722
vn 0.0012 0.8859 -0.4639
vn -0.3584 0.8571 -0.3700
vn -0.6815 0.2064 0.7021
vn 0.0000 0.1925 0.9813
vn 0.0000 0.0254 0.9997
vn -0.6942 0.0271 0.7192
vn 0.6815 0.2064 0.7021
vn 0.6942 0.0271 0.7192
vn 0.6946 -0.0000 0.7194
vn 0.0000 -0.0000 1.0000
vn -0.6946 -0.0000 0.7194
vn 0.9812 0.1930 -0.0000
vn 0.9997 0.0255 -0.0000
vn 0.6815 0.2064 -0.7021
vn 0.6942 0.0271 -0.7192
vn 0.6946 0.0000 -0.7194
vn 1.0000 0.0000 -0.0000
vn 0.0000 0.1925 -0.9813
vn 0.0000 0.0254 -0.9997
vn -0.6815 0.2064 -0.7021
vn -0.6942 0.0271 -0.7192
vn -0.6946 0.0000 -0.7194
vn 0.0000 0.0000 -1.0000
vn -0.9812 0.1930 -0.0000
vn -0.9997 0.0255 -0.0000
vn -1.0000 0.0000 -0.0000
vn -0.6933 -0.1462 0.7056
vn 0.0003 -0.1448 0.9895
vn 0.0004 -0.3439 0.9390
vn -0.6669 -0.3464 0.6598
vn 0.6942 -0.1430 0.7054
vn 0.6695 -0.3393 0.6608
vn 0.6859 -0.2646 0.6778
vn -0.0003 -0.2729 0.9620
vn -0.6853 -0.2698 0.6764
vn 0.9926 -0.1210 -0.0011
vn 0.9566 -0.2914 -0.0013
vn 0.6936 -0.1335 -0.7079
vn 0.6723 -0.3191 -0.6680
vn 0.6899 -0.2494 -0.6796
vn 0.9725 -0.2329 0.0010
vn 0.0003 -0.1317 -0.9913
vn 0.0004 -0.3155 -0.9489
vn -0.6927 -0.1367 -0.7081
vn -0.6698 -0.3262 -0.6670
vn -0.6893 -0.2547 -0.6782
vn -0.0003 -0.2511 -0.9680
vn -0.9921 -0.1256 -0.0011
vn -0.9534 -0.3016 -0.0013
vn -0.9706 -0.2408 0.0010
vn -0.0004 0.0011 1.0000
vn -0.7123 0.0011 0.7019
vn 0.7117 0.0010 0.7024
vn 0.6834 0.2767 0.6755
vn -0.0003 0.2855 0.9584
vn -0.6828 0.2820 0.6740
vn 1.0000 0.0009 0.0011
vn 0.7133 0.0010 -0.7008
vn 0.6876 0.2611 -0.6775
vn 0.9697 0.2443 0.0011
vn -0.0004 0.0010 -1.0000
vn -0.7139 0.0010 -0.7003
vn -0.6870 0.2665 -0.6760
vn -0.0004 0.2631 -0.9648
vn -1.0000 0.0009 0.0011
vn -0.9676 0.2524 0.0010
vn 0.0005 0.6056 0.7958
vn -0.5579 0.6227 0.5486
vn 0.5621 0.6169 0.5509
vn 0.8292 0.5589 -0.0013
vn 0.5686 0.5998 -0.5630
vn 0.0005 0.5784 -0.8157
vn -0.5643 0.6059 -0.5608
vn -0.8224 0.5689 -0.0013
vn 0.0001 -0.0201 0.9998
vn -0.6947 -0.0202 0.7190
vn 0.6948 -0.0197 0.7189
vn 0.9999 -0.0167 -0.0002
vn 0.6946 -0.0184 -0.7192
vn 0.0001 -0.0183 -0.9998
vn -0.6945 -0.0188 -0.7193
vn -0.9998 -0.0174 -0.0002
vn -0.9904 0.1384 -0.0000
vn -0.7011 -0.0657 0.7101
vn -0.7011 -0.0657 -0.7101
vn 0.0000 0.1505 -0.9886
vn 0.7011 -0.0657 -0.7101
vn 0.9904 0.1384 -0.0000
vn 0.7011 -0.0657 0.7101
vn 0.0000 0.1505 0.9886
# 106 vertex normals

vt 0.7778 0.2222 0.0000
vt 0.8750 0.5000 0.0000
vt 0.5000 0.5000 0.0000
vt 0.5000 0.1250 0.0000
vt 0.7778 0.7778 0.0000
vt 0.5000 0.8750 0.0000
vt 0.2222 0.7778 0.0000
vt 0.1250 0.5000 0.0000
vt 0.2222 0.2222 0.0000
vt 0.0000 0.0000 0.0000
vt 0.5000 0.0000 0.0000
vt 0.0000 0.5000 0.0000
vt 1.0000 0.0000 0.0000
vt 1.0000 0.5000 0.0000
vt 1.0000 1.0000 0.0000
vt 0.5000 1.0000 0.0000
vt 0.0000 1.0000 0.0000
vt 0.1250 0.1250 0.0000
vt 0.8750 0.1250 0.0000
vt 0.8750 0.8750 0.0000
vt 0.1250 0.8750 0.0000
# 21 texture coords

o Box006
g Box006
usemtl wire_008008136
s 1
f 141/21/141 142/22/142 143/23/143 144/24/144 
f 142/22/142 145/25/145 146/26/146 143/23/143 
f 147/27/147 148/28/148 143/23/143 146/26/146 
f 148/28/148 149/29/149 144/24/144 143/23/143 
f 150/29/150 151/24/151 152/23/152 153/28/153 
f 151/24/151 154/21/154 155/22/155 152/23/152 
f 156/25/156 157/26/157 152/23/152 155/22/155 
f 157/26/157 158/27/158 153/28/153 152/23/152 
f 159/30/159 160/31/160 161/23/161 162/32/162 
f 160/31/160 163/33/163 164/34/164 161/23/161 
f 165/35/165 166/36/166 161/23/161 164/34/164 
f 166/36/166 167/37/167 162/32/162 161/23/161 
f 163/30/163 168/31/168 169/23/169 164/32/164 
f 168/31/168 170/33/170 171/34/171 169/23/169 
f 172/35/172 173/36/173 169/23/169 171/34/171 
f 173/36/173 165/37/165 164/32/164 169/23/169 
f 170/30/170 174/31/174 175/23/175 171/32/171 
f 174/31/174 176/33/176 177/34/177 175/23/175 
f 178/35/178 179/36/179 175/23/175 177/34/177 
f 179/36/179 172/37/172 171/32/171 175/23/175 
f 176/30/176 180/31/180 181/23/181 177/32/177 
f 180/31/180 159/33/159 162/34/162 181/23/181 
f 167/35/167 182/36/182 181/23/181 162/34/162 
f 182/36/182 178/37/178 177/32/177 181/23/181 
f 183/38/183 184/31/184 185/31/185 186/38/186 
f 184/31/184 187/39/187 188/39/188 185/31/185 
f 189/39/189 190/31/190 185/31/185 188/39/188 
f 190/31/190 191/38/191 186/38/186 185/31/185 
f 187/39/187 192/34/192 193/34/193 188/39/188 
f 192/34/192 194/40/194 195/40/195 193/34/193 
f 196/40/196 197/34/197 193/34/193 195/40/195 
f 197/34/197 189/39/189 188/39/188 193/34/193 
f 194/40/194 198/36/198 199/36/199 195/40/195 
f 198/36/198 200/41/200 201/41/201 199/36/199 
f 202/41/202 203/36/203 199/36/199 201/41/201 
f 203/36/203 196/40/196 195/40/195 199/36/199 
f 200/41/200 204/32/204 205/32/205 201/41/201 
f 204/32/204 183/38/183 186/38/186 205/32/205 
f 191/38/191 206/32/206 205/32/205 186/38/186 
f 206/32/206 202/41/202 201/41/201 205/32/205 
f 191/38/191 190/31/190 207/31/207 208/38/208 
f 190/31/190 189/39/189 209/39/209 207/31/207 
f 210/39/210 211/31/211 207/31/207 209/39/209 
f 211/31/211 212/38/212 208/38/208 207/31/207 
f 189/39/189 197/34/197 213/34/213 209/39/209 
f 197/34/197 196/40/196 214/40/214 213/34/213 
f 215/40/215 216/34/216 213/34/213 214/40/214 
f 216/34/216 210/39/210 209/39/209 213/34/213 
f 196/40/196 203/36/203 217/36/217 214/40/214 
f 203/36/203 202/41/202 218/41/218 217/36/217 
f 219/41/219 220/36/220 217/36/217 218/41/218 
f 220/36/220 215/40/215 214/40/214 217/36/217 
f 202/41/202 206/32/206 221/32/221 218/41/218 
f 206/32/206 191/38/191 208/38/208 221/32/221 
f 212/38/212 222/32/222 221/32/221 208/38/208 
f 222/32/222 219/41/219 218/41/218 221/32/221 
f 212/38/212 211/31/211 223/31/223 224/38/224 
f 211/31/211 210/39/210 225/39/225 223/31/223 
f 154/21/154 151/24/151 223/31/223 225/39/225 
f 151/24/151 150/29/150 224/38/224 223/31/223 
f 210/39/210 216/34/216 226/34/226 225/39/225 
f 216/34/216 215/40/215 227/40/227 226/34/226 
f 156/25/156 155/22/155 226/34/226 227/40/227 
f 155/22/155 154/21/154 225/39/225 226/34/226 
f 215/40/215 220/36/220 228/36/228 227/40/227 
f 220/36/220 219/41/219 229/41/229 228/36/228 
f 158/27/158 157/26/157 228/36/228 229/41/229 
f 157/26/157 156/25/156 227/40/227 228/36/228 
f 219/41/219 222/32/222 230/32/230 229/41/229 
f 222/32/222 212/38/212 224/38/224 230/32/230 
f 150/29/150 153/28/153 230/32/230 224/38/224 
f 153/28/153 158/27/158 229/41/229 230/32/230 
f 167/30/167 166/31/166 231/31/231 232/38/232 
f 166/31/166 165/33/165 233/39/233 231/31/231 
f 187/39/187 184/31/184 231/31/231 233/39/233 
f 184/31/184 183/38/183 232/38/232 231/31/231 
f 165/33/165 173/34/173 234/34/234 233/39/233 
f 173/34/173 172/35/172 235/40/235 234/34/234 
f 194/40/194 192/34/192 234/34/234 235/40/235 
f 192/34/192 187/39/187 233/39/233 234/34/234 
f 172/35/172 179/36/179 236/36/236 235/40/235 
f 179/36/179 178/37/178 237/41/237 236/36/236 
f 200/41/200 198/36/198 236/36/236 237/41/237 
f 198/36/198 194/40/194 235/40/235 236/36/236 
f 178/37/178 182/32/182 238/32/238 237/41/237 
f 182/32/182 167/30/167 232/38/232 238/32/238 
f 183/38/183 204/32/204 238/32/238 232/38/232 
f 204/32/204 200/41/200 237/41/237 238/32/238 
f 159/33/159 180/34/180 239/34/239 240/39/240 
f 180/34/180 176/35/176 241/40/241 239/34/239 
f 145/25/145 142/22/142 239/34/239 241/40/241 
f 142/22/142 141/21/141 240/39/240 239/34/239 
f 176/35/176 174/36/174 242/36/242 241/40/241 
f 174/36/174 170/37/170 243/41/243 242/36/242 
f 147/27/147 146/26/146 242/36/242 243/41/243 
f 146/26/146 145/25/145 241/40/241 242/36/242 
f 170/37/170 168/32/168 244/32/244 243/41/243 
f 168/32/168 163/30/163 245/38/245 244/32/244 
f 149/29/149 148/28/148 244/32/244 245/38/245 
f 148/28/148 147/27/147 243/41/243 244/32/244 
f 163/30/163 160/31/160 246/31/246 245/38/245 
f 160/31/160 159/33/159 240/39/240 246/31/246 
f 141/21/141 144/24/144 246/31/246 240/39/240 
f 144/24/144 149/29/149 245/38/245 246/31/246 
# 104 polygons

