# 3ds Max Wavefront OBJ Exporter v0.99 - (c)2007 guruware
# File Created: 06.12.2022 13:56:49

mtllib Seashell.mtl

#
# object Cone001
#

v  12.6929 0.0000 3.6613
v  11.3557 0.0000 6.8894
v  9.2286 0.0000 9.6615
v  6.5093 -0.1326 11.8713
v  3.2554 0.0212 13.2112
v  -0.2358 0.0000 13.5818
v  -3.8078 0.1176 13.6122
v  -7.2375 -1.4369 12.3832
v  -10.8726 0.4097 10.9415
v  -12.7979 -0.6413 7.5080
v  -13.9199 0.1870 3.8996
v  -13.6205 0.0000 0.1970
v  -13.1644 0.0000 -3.2672
v  -11.8273 0.0000 -6.4953
v  -9.7002 0.0000 -9.2674
v  -6.9281 0.0000 -11.3945
v  -3.7000 0.0000 -12.7316
v  -0.2358 0.0000 -13.1877
v  3.2284 0.0000 -12.7316
v  6.4566 0.0000 -11.3945
v  9.2286 0.0000 -9.2674
v  11.3557 0.0000 -6.4953
v  12.6929 0.0000 -3.2672
v  13.1489 0.0000 0.1970
v  11.9884 5.4607 -3.0784
v  12.6943 5.6346 0.1970
v  11.0025 5.6642 -6.2914
v  9.0208 5.7364 -9.0596
v  5.8945 5.2106 -10.4209
v  2.9132 5.1513 -11.5552
v  -0.2358 5.0406 -11.7949
v  -3.1318 4.5323 -10.6110
v  -5.5897 4.2274 -9.0762
v  -7.8073 4.2274 -7.3745
v  -9.5090 4.2274 -5.1568
v  -10.5787 4.2274 -2.5743
v  -10.9436 4.2274 0.1970
v  -10.5787 4.2274 2.9684
v  -9.5090 4.2274 5.5509
v  -7.8073 4.2274 7.7686
v  -5.5897 4.2274 9.4702
v  -3.2283 4.7684 11.3652
v  -0.2358 5.2099 12.4564
v  2.7529 4.7590 11.3508
v  5.3263 4.4910 9.8308
v  8.3801 5.1626 8.8129
v  11.0048 5.6659 6.6868
v  12.3006 5.6654 3.5562
v  7.5214 8.4547 -1.8815
v  7.7950 8.4547 0.1970
v  6.7191 8.4547 -3.8184
v  5.4429 8.4547 -5.4816
v  3.7796 8.4547 -6.7579
v  1.8427 8.4547 -7.5601
v  -0.2358 8.4547 -7.8338
v  -2.4954 8.8977 -8.2358
v  -5.0734 9.4960 -8.1819
v  -7.3108 9.7052 -6.8780
v  -8.9370 9.7316 -4.8266
v  -9.5923 9.5032 -2.3100
v  -10.4773 9.8546 0.1970
v  -10.4780 10.0838 2.9414
v  -9.2180 9.9371 5.3829
v  -7.2443 9.6457 7.2056
v  -4.5540 8.8382 7.6764
v  -2.5774 9.0984 8.9361
v  -0.2358 8.8448 8.8439
v  1.8427 8.4547 7.9542
v  3.7796 8.4547 7.1519
v  5.4429 8.4547 5.8757
v  6.7191 8.4547 4.2125
v  7.5214 8.4547 2.2756
v  7.2807 14.2195 -1.8170
v  7.3410 14.0897 0.1970
v  6.2286 14.0185 -3.5352
v  4.5033 13.5358 -4.5420
v  2.8716 13.2272 -5.1851
v  1.2553 12.9400 -5.3678
v  -0.2358 12.6906 -5.1703
v  -1.6215 12.6821 -4.9744
v  -2.9127 12.6821 -4.4396
v  -4.0216 12.6821 -3.5887
v  -4.8724 12.6821 -2.4799
v  -5.4072 12.6821 -1.1886
v  -5.5897 12.6821 0.1970
v  -5.4072 12.6821 1.5827
v  -4.8724 12.6821 2.8740
v  -4.0776 12.7322 4.0388
v  -3.0073 12.8019 4.9975
v  -1.6541 12.7620 5.4904
v  -0.2358 13.3069 6.5377
v  1.6338 13.8659 7.1743
v  3.6128 14.1660 6.8630
v  5.2049 14.1641 5.6377
v  6.5531 14.2559 4.1166
v  7.1728 14.1487 2.1822
v  2.8481 17.1699 -0.5918
v  2.9005 17.1443 0.2068
v  2.4862 17.1382 -1.3138
v  1.8878 17.0610 -1.8606
v  1.5369 17.2708 -2.6079
v  1.0551 17.6343 -3.4866
v  0.2447 18.0596 -4.2962
v  -0.9164 18.5175 -4.8588
v  -2.2563 18.7165 -4.6302
v  -3.3979 18.6943 -3.7414
v  -4.1465 18.5500 -2.4959
v  -4.3491 18.2512 -1.0981
v  -4.0899 17.8879 0.1564
v  -3.8816 17.8233 1.2267
v  -3.3568 17.7024 2.1331
v  -2.6305 17.5613 2.7986
v  -1.8037 17.4199 3.2029
v  -0.9594 17.3322 3.4231
v  -0.1308 17.2232 3.3695
v  0.6485 17.1664 3.1776
v  1.2911 17.0762 2.7469
v  1.8477 17.0397 2.2392
v  2.3726 17.0778 1.6745
v  2.7509 17.1215 0.9851
v  0.3154 21.1742 0.1893
v  0.3112 21.2125 0.2128
v  0.3094 21.2134 0.1503
v  0.3120 21.1881 0.1472
v  0.3010 21.2180 0.0945
v  0.3139 21.1681 0.1509
v  0.2905 21.2267 0.0550
v  0.3056 21.1957 0.1041
v  0.2851 21.2403 0.0447
v  0.3119 21.1817 0.1403
v  0.2907 21.2570 0.0805
v  0.3108 21.2057 0.1550
v  0.3000 21.2687 0.1696
v  0.3155 21.1727 0.2045
v  0.2961 21.2643 0.2748
v  0.3088 21.2037 0.2619
v  0.2865 21.2486 0.3383
v  0.3112 21.1804 0.2612
v  0.2867 21.2329 0.3489
v  0.3065 21.1932 0.2861
v  0.2956 21.2218 0.3221
v  0.3145 21.1675 0.2359
v  0.3058 21.2152 0.2731
v  0.3135 21.1873 0.2278
# 144 vertices

vn 0.7321 -0.6524 0.1962
vn 0.6563 -0.6524 0.3789
vn 0.6153 -0.5272 0.5860
vn 0.4038 -0.6089 0.6828
vn 0.2130 -0.4476 0.8685
vn 0.0273 -0.7555 0.6546
vn -0.1804 -0.0205 0.9834
vn 0.1112 0.9716 -0.2091
vn -0.6375 0.1788 0.7494
vn 0.4430 0.8689 -0.2208
vn -0.9909 -0.0567 0.1222
vn -0.6236 -0.7804 -0.0457
vn -0.8607 -0.4538 -0.2306
vn -0.7717 -0.4538 -0.4455
vn -0.6301 -0.4538 -0.6301
vn -0.4455 -0.4538 -0.7717
vn -0.2239 -0.5016 -0.8356
vn 0.0000 -0.5757 -0.8177
vn 0.2089 -0.5905 -0.7795
vn 0.4007 -0.5983 -0.6939
vn 0.5312 -0.6600 -0.5312
vn 0.6565 -0.6522 -0.3790
vn 0.7508 -0.6292 -0.2012
vn 0.7608 -0.6490 0.0000
vn 0.8276 0.5191 -0.2134
vn 0.8538 0.5178 -0.0543
vn 0.7751 0.5169 -0.3634
vn 0.5197 0.5155 -0.6813
vn 0.2816 0.5151 -0.8095
vn 0.1733 0.5225 -0.8348
vn -0.1759 0.5167 -0.8379
vn -0.4599 0.4483 -0.7665
vn -0.5447 0.3755 -0.7499
vn -0.6637 0.3450 -0.6637
vn -0.8140 0.3413 -0.4700
vn -0.8957 0.3743 -0.2400
vn -0.9460 0.3241 -0.0000
vn -0.8992 0.3654 0.2407
vn -0.8071 0.3631 0.4656
vn -0.6153 0.4935 0.6147
vn -0.5805 0.4555 0.6749
vn -0.4984 0.4526 0.7394
vn 0.0025 0.4713 0.8819
vn 0.4186 0.5235 0.7421
vn 0.3228 0.5303 0.7839
vn 0.3471 0.4965 0.7957
vn 0.6695 0.5149 0.5354
vn 0.8284 0.5180 0.2133
vn 0.8287 0.5138 -0.2220
vn 0.8331 0.5532 0.0000
vn 0.7142 0.5657 -0.4123
vn 0.5462 0.6351 -0.5462
vn 0.3968 0.6084 -0.6873
vn 0.1989 0.6396 -0.7425
vn 0.1757 0.6462 -0.7427
vn 0.1771 0.5334 -0.8271
vn -0.1735 0.5029 -0.8468
vn -0.5449 0.5185 -0.6590
vn -0.7722 0.5189 -0.3666
vn -0.8129 0.5203 -0.2616
vn -0.8392 0.5091 -0.1909
vn -0.8328 0.5176 0.1962
vn -0.6616 0.5127 0.5472
vn -0.3234 0.4833 0.8135
vn -0.2693 0.5032 0.8211
vn -0.2097 0.5989 0.7729
vn 0.2627 0.5742 0.7754
vn 0.3813 0.4456 0.8100
vn 0.4662 0.3612 0.8076
vn 0.6218 0.4760 0.6218
vn 0.7302 0.5376 0.4216
vn 0.8066 0.5501 0.2161
vn 0.8361 0.4852 -0.2560
vn 0.8745 0.4840 0.0321
vn 0.5736 0.4676 -0.6725
vn 0.2998 0.4648 -0.8331
vn 0.1405 0.4477 -0.8831
vn -0.0804 0.3998 -0.9131
vn -0.1567 0.3635 -0.9183
vn -0.2481 0.3906 -0.8865
vn -0.4431 0.4790 -0.7578
vn -0.6061 0.5217 -0.6004
vn -0.7268 0.5462 -0.4164
vn -0.8090 0.5469 -0.2154
vn -0.7755 0.6313 0.0003
vn -0.7227 0.6636 0.1933
vn -0.6698 0.6561 0.3476
vn -0.6012 0.6326 0.4883
vn -0.4432 0.5268 0.7253
vn -0.4500 0.5600 0.6956
vn -0.5251 0.4670 0.7115
vn -0.1532 0.4531 0.8782
vn 0.3177 0.4948 0.8088
vn 0.5832 0.5001 0.6402
vn 0.7547 0.4970 0.4283
vn 0.8596 0.4875 0.1533
vn 0.6657 0.7231 -0.1843
vn 0.7100 0.7010 0.0664
vn 0.5423 0.6936 -0.4742
vn 0.6591 0.6191 -0.4270
vn 0.8480 0.4538 -0.2739
vn 0.8103 0.3839 -0.4427
vn 0.6284 0.3718 -0.6833
vn 0.2078 0.4597 -0.8634
vn -0.3116 0.5216 -0.7943
vn -0.6408 0.5438 -0.5420
vn -0.8146 0.5361 -0.2214
vn -0.8427 0.5208 0.1367
vn -0.8086 0.5295 0.2566
vn -0.7649 0.5508 0.3339
vn -0.6185 0.5307 0.5794
vn -0.4140 0.5299 0.7401
vn -0.2319 0.5303 0.8155
vn -0.0236 0.5260 0.8501
vn 0.1812 0.5987 0.7802
vn 0.3544 0.6771 0.6449
vn 0.4818 0.7047 0.5209
vn 0.4916 0.7150 0.4970
vn 0.5385 0.7195 0.4386
vn 0.6514 0.7093 0.2692
vn 0.8639 0.4575 -0.2108
vn -0.2589 0.9659 0.0043
vn -0.2519 0.9597 -0.1244
vn 0.2638 0.3519 -0.8981
vn -0.2744 0.8830 -0.3809
vn -0.0787 0.1308 -0.9883
vn 0.2230 -0.9430 0.2469
vn -0.2777 0.2125 -0.9369
vn 0.0881 0.9713 -0.2208
vn -0.4491 0.3079 -0.8388
vn 0.2705 0.8849 -0.3791
vn -0.7587 0.5131 -0.4013
vn 0.2112 0.9765 -0.0433
vn -0.8053 0.5358 0.2538
vn 0.1601 0.9731 0.1659
vn -0.5636 0.3177 0.7625
vn 0.0216 0.9267 0.3752
vn -0.3147 0.0926 0.9447
vn -0.1688 0.9098 0.3791
vn -0.1706 0.0376 0.9846
vn 0.2680 -0.8763 -0.4004
vn 0.0621 0.0647 0.9960
vn -0.2915 0.8548 0.4294
vn 0.8517 0.4328 0.2954
# 144 vertex normals

vt 0.2787 0.0000 -0.1317
vt 0.1676 0.0000 -0.3860
vt 0.0792 0.0000 -0.6140
vt 0.0194 0.0000 -0.8002
vt -0.0076 0.0000 -0.9319
vt -0.0000 0.0000 -1.0000
vt 0.0417 0.0000 -1.0000
vt 0.1146 0.0000 -0.9319
vt 0.2137 0.0000 -0.8002
vt 0.3324 0.0000 -0.6140
vt 0.4625 0.0000 -0.3860
vt 0.5952 0.0000 -0.1317
vt 0.7213 0.0000 0.1317
vt 0.8324 0.0000 0.3860
vt 0.9208 0.0000 0.6140
vt 0.9806 0.0000 0.8002
vt 1.0076 0.0000 0.9319
vt 1.0000 0.0000 1.0000
vt 0.9583 0.0000 1.0000
vt 0.9167 0.0000 1.0000
vt 0.8750 0.0000 1.0000
vt 0.8333 0.0000 1.0000
vt 0.7917 0.0000 1.0000
vt 0.7500 0.0000 1.0000
vt 0.7917 0.2000 0.8000
vt 0.7500 0.2000 0.8000
vt 0.8333 0.2000 0.8000
vt 0.8750 0.2000 0.8000
vt 0.9167 0.2000 0.8000
vt 0.9583 0.2000 0.8000
vt 1.0000 0.2000 0.8000
vt -0.0000 0.0000 1.0000
vt 0.0417 0.0000 1.0000
vt 0.0417 0.2000 0.8000
vt -0.0000 0.2000 0.8000
vt 0.0833 0.0000 1.0000
vt 0.0833 0.2000 0.8000
vt 0.1250 0.0000 1.0000
vt 0.1250 0.2000 0.8000
vt 0.1667 0.0000 1.0000
vt 0.1667 0.2000 0.8000
vt 0.2083 0.0000 1.0000
vt 0.2083 0.2000 0.8000
vt 0.2500 0.0000 1.0000
vt 0.2500 0.2000 0.8000
vt 0.2917 0.0000 1.0000
vt 0.2917 0.2000 0.8000
vt 0.3333 0.0000 1.0000
vt 0.3333 0.2000 0.8000
vt 0.3750 0.0000 1.0000
vt 0.3750 0.2000 0.8000
vt 0.4167 0.0000 1.0000
vt 0.4167 0.2000 0.8000
vt 0.4583 0.0000 1.0000
vt 0.4583 0.2000 0.8000
vt 0.5000 0.0000 1.0000
vt 0.5000 0.2000 0.8000
vt 0.5417 0.0000 1.0000
vt 0.5417 0.2000 0.8000
vt 0.5833 0.0000 1.0000
vt 0.5833 0.2000 0.8000
vt 0.6250 0.0000 1.0000
vt 0.6250 0.2000 0.8000
vt 0.6667 0.0000 1.0000
vt 0.6667 0.2000 0.8000
vt 0.7083 0.0000 1.0000
vt 0.7083 0.2000 0.8000
vt 0.7917 0.4000 0.6000
vt 0.7500 0.4000 0.6000
vt 0.8333 0.4000 0.6000
vt 0.8750 0.4000 0.6000
vt 0.9167 0.4000 0.6000
vt 0.9583 0.4000 0.6000
vt 1.0000 0.4000 0.6000
vt 0.0417 0.4000 0.6000
vt -0.0000 0.4000 0.6000
vt 0.0833 0.4000 0.6000
vt 0.1250 0.4000 0.6000
vt 0.1667 0.4000 0.6000
vt 0.2083 0.4000 0.6000
vt 0.2500 0.4000 0.6000
vt 0.2917 0.4000 0.6000
vt 0.3333 0.4000 0.6000
vt 0.3750 0.4000 0.6000
vt 0.4167 0.4000 0.6000
vt 0.4583 0.4000 0.6000
vt 0.5000 0.4000 0.6000
vt 0.5417 0.4000 0.6000
vt 0.5833 0.4000 0.6000
vt 0.6250 0.4000 0.6000
vt 0.6667 0.4000 0.6000
vt 0.7083 0.4000 0.6000
vt 0.7917 0.6000 0.4000
vt 0.7500 0.6000 0.4000
vt 0.8333 0.6000 0.4000
vt 0.8750 0.6000 0.4000
vt 0.9167 0.6000 0.4000
vt 0.9583 0.6000 0.4000
vt 1.0000 0.6000 0.4000
vt 0.0417 0.6000 0.4000
vt -0.0000 0.6000 0.4000
vt 0.0833 0.6000 0.4000
vt 0.1250 0.6000 0.4000
vt 0.1667 0.6000 0.4000
vt 0.2083 0.6000 0.4000
vt 0.2500 0.6000 0.4000
vt 0.2917 0.6000 0.4000
vt 0.3333 0.6000 0.4000
vt 0.3750 0.6000 0.4000
vt 0.4167 0.6000 0.4000
vt 0.4583 0.6000 0.4000
vt 0.5000 0.6000 0.4000
vt 0.5417 0.6000 0.4000
vt 0.5833 0.6000 0.4000
vt 0.6250 0.6000 0.4000
vt 0.6667 0.6000 0.4000
vt 0.7083 0.6000 0.4000
vt 0.7917 0.8000 0.2000
vt 0.7500 0.8000 0.2000
vt 0.8333 0.8000 0.2000
vt 0.8750 0.8000 0.2000
vt 0.9167 0.8000 0.2000
vt 0.9583 0.8000 0.2000
vt 1.0000 0.8000 0.2000
vt 0.0417 0.8000 0.2000
vt -0.0000 0.8000 0.2000
vt 0.0833 0.8000 0.2000
vt 0.1250 0.8000 0.2000
vt 0.1667 0.8000 0.2000
vt 0.2083 0.8000 0.2000
vt 0.2500 0.8000 0.2000
vt 0.2917 0.8000 0.2000
vt 0.3333 0.8000 0.2000
vt 0.3750 0.8000 0.2000
vt 0.4167 0.8000 0.2000
vt 0.4583 0.8000 0.2000
vt 0.5000 0.8000 0.2000
vt 0.5417 0.8000 0.2000
vt 0.5833 0.8000 0.2000
vt 0.6250 0.8000 0.2000
vt 0.6667 0.8000 0.2000
vt 0.7083 0.8000 0.2000
vt 0.5000 1.0000 0.0000
# 143 texture coords

o Cone001
g Cone001
usemtl wire_196088225
s 1
f 1/1/1 2/2/2 3/3/3 4/4/4 5/5/5 6/6/6 7/7/7 8/8/8 9/9/9 10/10/10 11/11/11 12/12/12 13/13/13 14/14/14 15/15/15 16/16/16 17/17/17 18/18/18 19/19/19 20/20/20 21/21/21 22/22/22 23/23/23 24/24/24 
s 8
f 24/24/24 23/23/23 25/25/25 26/26/26 
f 23/23/23 22/22/22 27/27/27 25/25/25 
f 22/22/22 21/21/21 28/28/28 27/27/27 
f 21/21/21 20/20/20 29/29/29 28/28/28 
f 20/20/20 19/19/19 30/30/30 29/29/29 
f 19/19/19 18/18/18 31/31/31 30/30/30 
f 18/32/18 17/33/17 32/34/32 31/35/31 
f 17/33/17 16/36/16 33/37/33 32/34/32 
f 16/36/16 15/38/15 34/39/34 33/37/33 
f 15/38/15 14/40/14 35/41/35 34/39/34 
f 14/40/14 13/42/13 36/43/36 35/41/35 
f 13/42/13 12/44/12 37/45/37 36/43/36 
f 12/44/12 11/46/11 38/47/38 37/45/37 
f 11/46/11 10/48/10 39/49/39 38/47/38 
f 10/48/10 9/50/9 40/51/40 39/49/39 
f 9/50/9 8/52/8 41/53/41 40/51/40 
f 8/52/8 7/54/7 42/55/42 41/53/41 
f 7/54/7 6/56/6 43/57/43 42/55/42 
f 6/56/6 5/58/5 44/59/44 43/57/43 
f 5/58/5 4/60/4 45/61/45 44/59/44 
f 4/60/4 3/62/3 46/63/46 45/61/45 
f 3/62/3 2/64/2 47/65/47 46/63/46 
f 2/64/2 1/66/1 48/67/48 47/65/47 
f 1/66/1 24/24/24 26/26/26 48/67/48 
f 26/26/26 25/25/25 49/68/49 50/69/50 
f 25/25/25 27/27/27 51/70/51 49/68/49 
f 27/27/27 28/28/28 52/71/52 51/70/51 
f 28/28/28 29/29/29 53/72/53 52/71/52 
f 29/29/29 30/30/30 54/73/54 53/72/53 
f 30/30/30 31/31/31 55/74/55 54/73/54 
f 31/35/31 32/34/32 56/75/56 55/76/55 
f 32/34/32 33/37/33 57/77/57 56/75/56 
f 33/37/33 34/39/34 58/78/58 57/77/57 
f 34/39/34 35/41/35 59/79/59 58/78/58 
f 35/41/35 36/43/36 60/80/60 59/79/59 
f 36/43/36 37/45/37 61/81/61 60/80/60 
f 37/45/37 38/47/38 62/82/62 61/81/61 
f 38/47/38 39/49/39 63/83/63 62/82/62 
f 39/49/39 40/51/40 64/84/64 63/83/63 
f 40/51/40 41/53/41 65/85/65 64/84/64 
f 41/53/41 42/55/42 66/86/66 65/85/65 
f 42/55/42 43/57/43 67/87/67 66/86/66 
f 43/57/43 44/59/44 68/88/68 67/87/67 
f 44/59/44 45/61/45 69/89/69 68/88/68 
f 45/61/45 46/63/46 70/90/70 69/89/69 
f 46/63/46 47/65/47 71/91/71 70/90/70 
f 47/65/47 48/67/48 72/92/72 71/91/71 
f 48/67/48 26/26/26 50/69/50 72/92/72 
f 50/69/50 49/68/49 73/93/73 74/94/74 
f 49/68/49 51/70/51 75/95/75 73/93/73 
f 51/70/51 52/71/52 76/96/76 75/95/75 
f 52/71/52 53/72/53 77/97/77 76/96/76 
f 53/72/53 54/73/54 78/98/78 77/97/77 
f 54/73/54 55/74/55 79/99/79 78/98/78 
f 55/76/55 56/75/56 80/100/80 79/101/79 
f 56/75/56 57/77/57 81/102/81 80/100/80 
f 57/77/57 58/78/58 82/103/82 81/102/81 
f 58/78/58 59/79/59 83/104/83 82/103/82 
f 59/79/59 60/80/60 84/105/84 83/104/83 
f 60/80/60 61/81/61 85/106/85 84/105/84 
f 61/81/61 62/82/62 86/107/86 85/106/85 
f 62/82/62 63/83/63 87/108/87 86/107/86 
f 63/83/63 64/84/64 88/109/88 87/108/87 
f 64/84/64 65/85/65 89/110/89 88/109/88 
f 65/85/65 66/86/66 90/111/90 89/110/89 
f 66/86/66 67/87/67 91/112/91 90/111/90 
f 67/87/67 68/88/68 92/113/92 91/112/91 
f 68/88/68 69/89/69 93/114/93 92/113/92 
f 69/89/69 70/90/70 94/115/94 93/114/93 
f 70/90/70 71/91/71 95/116/95 94/115/94 
f 71/91/71 72/92/72 96/117/96 95/116/95 
f 72/92/72 50/69/50 74/94/74 96/117/96 
f 74/94/74 73/93/73 97/118/97 98/119/98 
f 73/93/73 75/95/75 99/120/99 97/118/97 
f 75/95/75 76/96/76 100/121/100 99/120/99 
f 76/96/76 77/97/77 101/122/101 100/121/100 
f 77/97/77 78/98/78 102/123/102 101/122/101 
f 78/98/78 79/99/79 103/124/103 102/123/102 
f 79/101/79 80/100/80 104/125/104 103/126/103 
f 80/100/80 81/102/81 105/127/105 104/125/104 
f 81/102/81 82/103/82 106/128/106 105/127/105 
f 82/103/82 83/104/83 107/129/107 106/128/106 
f 83/104/83 84/105/84 108/130/108 107/129/107 
f 84/105/84 85/106/85 109/131/109 108/130/108 
f 85/106/85 86/107/86 110/132/110 109/131/109 
f 86/107/86 87/108/87 111/133/111 110/132/110 
f 87/108/87 88/109/88 112/134/112 111/133/111 
f 88/109/88 89/110/89 113/135/113 112/134/112 
f 89/110/89 90/111/90 114/136/114 113/135/113 
f 90/111/90 91/112/91 115/137/115 114/136/114 
f 91/112/91 92/113/92 116/138/116 115/137/115 
f 92/113/92 93/114/93 117/139/117 116/138/116 
f 93/114/93 94/115/94 118/140/118 117/139/117 
f 94/115/94 95/116/95 119/141/119 118/140/118 
f 95/116/95 96/117/96 120/142/120 119/141/119 
f 96/117/96 74/94/74 98/119/98 120/142/120 
f 98/119/98 97/118/97 121/143/121 122/143/122 
f 97/118/97 99/120/99 123/143/123 121/143/121 
f 99/120/99 100/121/100 124/143/124 123/143/123 
f 100/121/100 101/122/101 125/143/125 124/143/124 
f 101/122/101 102/123/102 126/143/126 125/143/125 
f 102/123/102 103/124/103 127/143/127 126/143/126 
f 103/126/103 104/125/104 128/143/128 127/143/127 
f 104/125/104 105/127/105 129/143/129 128/143/128 
f 105/127/105 106/128/106 130/143/130 129/143/129 
f 106/128/106 107/129/107 131/143/131 130/143/130 
f 107/129/107 108/130/108 132/143/132 131/143/131 
f 108/130/108 109/131/109 133/143/133 132/143/132 
f 109/131/109 110/132/110 134/143/134 133/143/133 
f 110/132/110 111/133/111 135/143/135 134/143/134 
f 111/133/111 112/134/112 136/143/136 135/143/135 
f 112/134/112 113/135/113 137/143/137 136/143/136 
f 113/135/113 114/136/114 138/143/138 137/143/137 
f 114/136/114 115/137/115 139/143/139 138/143/138 
f 115/137/115 116/138/116 140/143/140 139/143/139 
f 116/138/116 117/139/117 141/143/141 140/143/140 
f 117/139/117 118/140/118 142/143/142 141/143/141 
f 118/140/118 119/141/119 143/143/143 142/143/142 
f 119/141/119 120/142/120 144/143/144 143/143/143 
f 120/142/120 98/119/98 122/143/122 144/143/144 
s 1
f 144/143/144 122/143/122 121/143/121 123/143/123 124/143/124 125/143/125 126/143/126 127/143/127 128/143/128 129/143/129 130/143/130 131/143/131 132/143/132 133/143/133 134/143/134 135/143/135 136/143/136 137/143/137 138/143/138 139/143/139 140/143/140 141/143/141 142/143/142 143/143/143 
# 122 polygons

