# 3ds Max Wavefront OBJ Exporter v0.99 - (c)2007 guruware
# File Created: 16.11.2022 21:34:59

mtllib Rock 2.mtl

#
# object Sphere001
#

v  -40.4156 8.6776 12.8143
v  -34.2210 26.1830 9.1386
v  -43.3694 19.2014 7.0145
v  19.7391 10.6467 20.5240
v  26.1325 13.4053 13.0527
v  8.0485 20.5960 27.7185
v  -20.0747 4.3606 -23.6410
v  -21.3888 15.6940 -27.9933
v  -7.1951 10.4275 -27.4163
v  -14.5875 33.7243 -18.8212
v  -1.6990 25.3778 -30.3797
v  -20.4864 27.2260 -24.1393
v  16.4495 -2.0074 5.6533
v  23.6064 4.0430 9.1186
v  6.3207 0.8063 22.0277
v  -34.5929 4.8796 -2.7825
v  -42.8640 10.7190 0.6078
v  6.8902 7.1494 -27.5911
v  18.2298 5.4697 -21.8160
v  -0.1740 2.9747 -23.6426
v  18.2612 30.4096 10.4626
v  21.3810 21.6829 13.5284
v  25.5907 27.1852 -4.5170
v  -5.9638 28.2117 29.7137
v  -23.4521 29.7158 26.2939
v  -8.3209 19.2014 33.1245
v  3.3220 40.5738 0.7060
v  5.8589 41.2149 10.6740
v  13.7500 33.8183 -3.6158
v  -6.9013 40.2790 -4.9100
v  -21.8248 40.8994 1.6747
v  -18.0672 42.0143 6.0381
v  -23.9006 32.6906 -7.8786
v  -11.8622 36.6587 -9.9822
v  -15.0380 2.7217 1.3385
v  -25.8978 1.6631 5.7238
v  -1.7064 16.1274 31.7544
v  6.4207 9.4747 26.9415
v  -2.4843 -6.1394 3.9925
v  -13.0193 1.8145 0.6082
v  -9.4647 -2.7730 -8.6825
v  -3.1269 -2.3693 -9.1250
v  14.8316 0.8123 -12.9904
v  7.7006 1.3971 -4.6532
v  24.9104 17.9414 -4.3810
v  25.0722 5.5390 4.3543
v  -6.5421 19.2014 -31.3996
v  16.8491 8.2318 -24.8683
v  14.8288 26.5216 -24.4265
v  18.4887 17.9014 -18.0552
v  -29.6491 6.9086 -17.0574
v  -29.1278 15.8757 -16.7440
v  -29.2470 27.4621 -14.9295
v  -23.0818 11.0825 23.5143
v  -18.3265 17.4656 30.8941
v  -26.4191 20.9425 24.3936
v  -0.1762 6.6614 27.0851
v  -16.6123 3.3819 25.2060
v  -2.3025 40.4176 9.1047
v  4.7312 38.8898 14.3188
v  10.1513 28.3029 19.9274
v  -25.0085 1.8422 -14.2767
v  23.6656 19.2014 -12.1345
v  5.0112 33.4992 -20.0988
v  15.5707 32.5790 -15.1384
v  6.2770 30.2176 -25.1514
v  -3.0818 -0.9309 15.2151
v  3.2438 -5.8130 8.8745
v  24.2046 13.1580 -17.4729
v  15.1413 1.4879 -4.0366
v  -4.3002 37.9836 17.0800
v  -20.8033 37.2105 7.9905
v  -14.4710 35.2606 19.8855
v  -26.5655 31.9442 5.8592
v  -29.0033 31.2265 17.8879
v  -28.1547 5.1377 -9.4029
v  -29.9715 26.6733 0.6094
v  3.4537 -4.5844 2.0424
v  -0.1752 -6.0318 0.6088
v  3.5463 31.2168 25.6948
v  -0.1738 -2.5996 -15.5292
v  -13.2816 -1.4885 -15.3638
v  9.7622 3.6439 21.6212
v  11.9440 16.0799 -28.6491
v  4.2170 19.2014 -29.0063
v  -43.8053 17.0588 0.6086
v  -32.5932 20.9642 -14.7248
v  -20.1606 0.0584 12.5851
v  -6.9786 -0.6620 11.9579
v  13.3071 35.0652 5.4321
v  26.4772 13.8642 -2.0159
v  -2.8525 39.2632 2.4122
v  2.1449 38.5849 -7.0416
v  -9.1613 39.2848 -9.3045
v  -30.3829 2.0285 20.7906
v  10.8396 38.2337 11.6221
v  -11.6322 12.4351 32.6299
v  24.1100 9.5749 -10.8772
v  -4.4004 33.5206 -16.2559
# 99 vertices

vn -0.8063 -0.3869 0.4475
vn -0.7392 0.6559 0.1529
vn -0.8448 0.4410 0.3031
vn 0.6533 -0.2103 0.7273
vn 0.9266 0.0794 0.3674
vn 0.5009 0.1992 0.8423
vn -0.3171 -0.6286 -0.7101
vn -0.4845 -0.0429 -0.8737
vn -0.1029 -0.3855 -0.9169
vn -0.2413 0.8626 -0.4446
vn 0.0480 0.4181 -0.9071
vn -0.4463 0.5412 -0.7127
vn 0.4633 -0.8862 -0.0078
vn 0.7311 -0.6211 0.2822
vn 0.2517 -0.7137 0.6537
vn -0.5049 -0.8146 -0.2853
vn -0.8579 -0.4520 -0.2445
vn 0.1264 -0.5132 -0.8489
vn 0.5752 -0.6587 -0.4851
vn 0.0244 -0.7630 -0.6460
vn 0.7205 0.5808 0.3788
vn 0.7921 0.3987 0.4621
vn 0.9024 0.4274 -0.0544
vn 0.0690 0.5343 0.8425
vn -0.4849 0.5225 0.7013
vn 0.0297 0.1514 0.9880
vn 0.1188 0.9744 -0.1906
vn 0.2144 0.9522 0.2178
vn 0.4536 0.8825 -0.1242
vn 0.0303 0.9825 -0.1838
vn -0.5808 0.8089 -0.0907
vn -0.3109 0.9001 0.3052
vn -0.6062 0.7394 -0.2930
vn -0.4966 0.8357 -0.2344
vn -0.2955 -0.9553 0.0031
vn -0.1951 -0.9674 -0.1617
vn 0.2819 -0.0778 0.9563
vn 0.3491 -0.3584 0.8658
vn -0.3037 -0.9456 0.1167
vn -0.4077 -0.9095 0.0804
vn -0.2206 -0.9745 -0.0405
vn 0.1262 -0.9794 -0.1574
vn 0.3963 -0.9104 -0.1185
vn 0.2044 -0.9517 -0.2290
vn 0.9940 0.0973 -0.0497
vn 0.8559 -0.5141 -0.0558
vn -0.0929 -0.0139 -0.9956
vn 0.5588 -0.2730 -0.7831
vn 0.5956 0.4091 -0.6913
vn 0.7621 0.1875 -0.6197
vn -0.9002 -0.3283 -0.2862
vn -0.8049 -0.0626 -0.5901
vn -0.7888 0.5610 -0.2511
vn -0.5135 -0.1902 0.8368
vn -0.4675 -0.0943 0.8789
vn -0.7160 0.0203 0.6978
vn 0.1488 -0.5340 0.8323
vn -0.2059 -0.7120 0.6713
vn 0.0100 0.9959 0.0903
vn 0.2018 0.8021 0.5621
vn 0.6304 0.4915 0.6009
vn -0.4696 -0.8668 -0.1678
vn 0.9064 0.2055 -0.3692
vn 0.1164 0.9077 -0.4032
vn 0.4616 0.8400 -0.2852
vn 0.1912 0.7123 -0.6753
vn -0.1944 -0.9185 0.3442
vn 0.0734 -0.9716 0.2251
vn 0.8656 0.0780 -0.4947
vn 0.2758 -0.9492 -0.1515
vn -0.0317 0.8764 0.4805
vn -0.5496 0.7343 0.3985
vn -0.1585 0.8841 0.4396
vn -0.7364 0.6722 -0.0757
vn -0.7436 0.5473 0.3841
vn -0.8391 -0.1551 -0.5214
vn -0.6739 0.7148 -0.1869
vn 0.3581 -0.8846 -0.2986
vn 0.1782 -0.9529 -0.2454
vn 0.3731 0.5940 0.7128
vn 0.0816 -0.9643 -0.2517
vn -0.1647 -0.9429 -0.2895
vn 0.4635 -0.5321 0.7085
vn 0.3528 0.0391 -0.9349
vn 0.2122 0.0450 -0.9762
vn -0.9211 0.2804 -0.2699
vn -0.7198 0.2595 -0.6439
vn -0.0828 -0.9964 0.0155
vn -0.2901 -0.9400 0.1794
vn 0.6134 0.7882 -0.0494
vn 0.9916 0.0943 -0.0886
vn 0.1704 0.9734 -0.1533
vn 0.1566 0.9432 -0.2931
vn -0.3200 0.9251 -0.2042
vn -0.5004 -0.6252 0.5989
vn 0.5789 0.7579 0.3008
vn -0.1478 -0.3432 0.9276
vn 0.8997 -0.4032 -0.1670
vn 0.0314 0.9540 -0.2982
# 99 vertex normals

o Sphere001
g Sphere001
usemtl wire_115115115
s 2
f 1//1 2//2 3//3 
f 4//4 5//5 6//6 
f 7//7 8//8 9//9 
f 10//10 11//11 12//12 
f 13//13 14//14 15//15 
f 16//16 1//1 17//17 
f 18//18 19//19 20//20 
f 21//21 22//22 23//23 
f 24//24 25//25 26//26 
f 27//27 28//28 29//29 
f 30//30 31//31 32//32 
f 33//33 31//31 34//34 
f 35//35 36//36 16//16 
f 6//6 37//37 38//38 
f 39//39 40//40 41//41 
f 42//42 43//43 44//44 
f 45//45 23//23 22//22 
f 13//13 46//46 14//14 
f 47//47 12//12 11//11 
f 48//48 49//49 50//50 
f 51//51 52//52 8//8 
f 34//34 53//53 33//33 
f 54//54 55//55 56//56 
f 57//57 58//58 15//15 
f 59//59 32//32 60//60 
f 22//22 21//21 61//61 
f 18//18 20//20 7//7 
f 62//62 41//41 40//40 
f 49//49 23//23 63//63 
f 64//64 65//65 66//66 
f 15//15 67//67 68//68 
f 15//15 58//58 67//67 
f 19//19 48//48 69//69 
f 46//46 70//70 43//43 
f 71//71 72//72 73//73 
f 72//72 74//74 75//75 
f 70//70 44//44 43//43 
f 67//67 39//39 68//68 
f 52//52 76//76 17//17 
f 3//3 2//2 77//77 
f 66//66 10//10 64//64 
f 59//59 30//30 32//32 
f 70//70 78//78 44//44 
f 79//79 42//42 44//44 
f 24//24 71//71 73//73 
f 80//80 60//60 71//71 
f 43//43 42//42 81//81 
f 41//41 62//62 82//82 
f 6//6 38//38 4//4 
f 4//4 83//83 14//14 
f 7//7 82//82 62//62 
f 8//8 7//7 51//51 
f 9//9 18//18 7//7 
f 84//84 85//85 49//49 
f 86//86 77//77 87//87 
f 87//87 33//33 53//53 
f 35//35 88//88 36//36 
f 40//40 39//39 89//89 
f 68//68 13//13 15//15 
f 13//13 68//68 78//78 
f 23//23 29//29 90//90 
f 65//65 23//23 49//49 
f 75//75 73//73 72//72 
f 2//2 1//1 56//56 
f 46//46 91//91 5//5 
f 69//69 48//48 50//50 
f 92//92 93//93 30//30 
f 28//28 27//27 59//59 
f 10//10 94//94 93//93 
f 34//34 31//31 30//30 
f 56//56 1//1 54//54 
f 58//58 95//95 88//88 
f 6//6 80//80 37//37 
f 60//60 80//80 61//61 
f 5//5 22//22 6//6 
f 91//91 22//22 5//5 
f 90//90 29//29 28//28 
f 60//60 61//61 96//96 
f 55//55 26//26 25//25 
f 37//37 57//57 38//38 
f 79//79 68//68 39//39 
f 41//41 79//79 39//39 
f 12//12 47//47 8//8 
f 52//52 53//53 8//8 
f 23//23 65//65 29//29 
f 29//29 65//65 64//64 
f 85//85 11//11 49//49 
f 49//49 66//66 65//65 
f 85//85 84//84 18//18 
f 48//48 19//19 18//18 
f 95//95 54//54 1//1 
f 36//36 1//1 16//16 
f 17//17 86//86 87//87 
f 3//3 17//17 1//1 
f 69//69 63//63 45//45 
f 23//23 45//45 63//63 
f 14//14 5//5 4//4 
f 5//5 14//14 46//46 
f 25//25 56//56 55//55 
f 56//56 25//25 2//2 
f 94//94 10//10 34//34 
f 53//53 34//34 10//10 
f 97//97 58//58 57//57 
f 57//57 37//37 97//97 
f 82//82 42//42 41//41 
f 42//42 79//79 41//41 
f 43//43 81//81 19//19 
f 43//43 19//19 98//98 
f 87//87 77//77 33//33 
f 31//31 33//33 74//74 
f 52//52 51//51 76//76 
f 40//40 16//16 62//62 
f 64//64 27//27 29//29 
f 93//93 64//64 99//99 
f 31//31 74//74 72//72 
f 32//32 31//31 72//72 
f 69//69 98//98 19//19 
f 98//98 69//69 45//45 
f 89//89 88//88 40//40 
f 89//89 58//58 88//88 
f 2//2 75//75 74//74 
f 75//75 2//2 25//25 
f 42//42 82//82 81//81 
f 81//81 20//20 19//19 
f 28//28 60//60 96//96 
f 28//28 59//59 60//60 
f 15//15 83//83 57//57 
f 15//15 14//14 83//83 
f 90//90 21//21 23//23 
f 61//61 21//21 96//96 
f 70//70 46//46 13//13 
f 13//13 78//78 70//70 
f 8//8 47//47 9//9 
f 18//18 9//9 47//47 
f 27//27 64//64 93//93 
f 27//27 93//93 92//92 
f 12//12 53//53 10//10 
f 8//8 53//53 12//12 
f 92//92 30//30 59//59 
f 92//92 59//59 27//27 
f 53//53 52//52 87//87 
f 87//87 52//52 17//17 
f 36//36 95//95 1//1 
f 88//88 95//95 36//36 
f 73//73 75//75 25//25 
f 73//73 25//25 24//24 
f 16//16 17//17 76//76 
f 76//76 62//62 16//16 
f 58//58 97//97 54//54 
f 95//95 58//58 54//54 
f 6//6 61//61 80//80 
f 61//61 6//6 22//22 
f 71//71 24//24 80//80 
f 37//37 80//80 24//24 
f 72//72 71//71 32//32 
f 71//71 60//60 32//32 
f 2//2 74//74 77//77 
f 77//77 74//74 33//33 
f 79//79 78//78 68//68 
f 79//79 44//44 78//78 
f 26//26 97//97 37//37 
f 24//24 26//26 37//37 
f 17//17 3//3 86//86 
f 77//77 86//86 3//3 
f 38//38 57//57 83//83 
f 83//83 4//4 38//38 
f 10//10 99//99 64//64 
f 99//99 10//10 93//93 
f 51//51 7//7 62//62 
f 51//51 62//62 76//76 
f 90//90 96//96 21//21 
f 28//28 96//96 90//90 
f 54//54 97//97 55//55 
f 97//97 26//26 55//55 
f 66//66 49//49 11//11 
f 10//10 66//66 11//11 
f 94//94 30//30 93//93 
f 30//30 94//94 34//34 
f 49//49 48//48 84//84 
f 84//84 48//48 18//18 
f 16//16 40//40 35//35 
f 40//40 88//88 35//35 
f 91//91 45//45 22//22 
f 98//98 45//45 91//91 
f 67//67 58//58 89//89 
f 89//89 39//39 67//67 
f 85//85 18//18 47//47 
f 11//11 85//85 47//47 
f 50//50 49//49 63//63 
f 69//69 50//50 63//63 
f 20//20 82//82 7//7 
f 20//20 81//81 82//82 
f 46//46 43//43 98//98 
f 46//46 98//98 91//91 
# 0 polygons - 194 triangles

